<svg width="19" height="15" viewBox="0 0 19 15" fill="none" xmlns="http://www.w3.org/2000/svg">
<path d="M16.5689 3.74008C16.5797 3.90238 16.5797 4.06829 16.5797 4.23058C16.5797 9.23299 12.7711 15 5.81029 15C3.66434 15 1.67348 14.3797 0 13.3013C0.302957 13.3373 0.598702 13.3482 0.912479 13.3482C2.68334 13.3482 4.30993 12.7495 5.61193 11.7324C3.94927 11.6963 2.5535 10.6071 2.07382 9.10676C2.30825 9.14282 2.54268 9.16446 2.78793 9.16446C3.12695 9.16446 3.46598 9.11758 3.78336 9.03462C2.04857 8.68478 0.75018 7.15917 0.75018 5.31979V5.2729C1.25511 5.55422 1.83938 5.73095 2.45973 5.75259C1.43905 5.07454 0.77182 3.9132 0.77182 2.60038C0.77182 1.89709 0.959365 1.2515 1.28757 0.688868C3.1522 2.98629 5.95095 4.48666 9.09233 4.64895C9.03462 4.36764 8.99856 4.0755 8.99856 3.78336C8.99856 1.69873 10.6865 0 12.7819 0C13.8711 0 14.8557 0.458043 15.5482 1.1938C16.403 1.0315 17.2253 0.714114 17.9502 0.281318C17.6689 1.16134 17.0702 1.89709 16.2876 2.36595C17.0486 2.283 17.7879 2.07382 18.466 1.78168C17.9502 2.53186 17.3046 3.19909 16.5689 3.74008Z" fill="#C7D9E5"/>
</svg>
