<svg width="12" height="15" viewBox="0 0 12 15" fill="none" xmlns="http://www.w3.org/2000/svg">
<path d="M1.69305 7.03931L4.61106 8.46315C5.17357 8.73855 5.08567 9.5618 4.47922 9.71415L1.32976 10.5022C1.23731 10.5254 1.14098 10.5285 1.04724 10.5113C0.95349 10.4942 0.864499 10.4572 0.786242 10.4028C0.707985 10.3484 0.642273 10.2779 0.593519 10.196C0.544764 10.1141 0.514097 10.0227 0.503577 9.92802C0.407046 9.08574 0.497067 8.23254 0.767253 7.42896C0.797615 7.339 0.846804 7.25655 0.911542 7.1871C0.97628 7.11766 1.05508 7.06281 1.14268 7.02621C1.23029 6.98962 1.32469 6.97212 1.41959 6.97488C1.5145 6.97764 1.60772 7.00061 1.69305 7.04224V7.03931ZM2.98213 14.0501C3.68031 14.5283 4.47399 14.8492 5.30833 14.9906C5.40224 15.0065 5.49847 15.0022 5.59057 14.9779C5.68266 14.9536 5.76849 14.9098 5.8423 14.8496C5.91611 14.7894 5.97618 14.7141 6.0185 14.6288C6.06081 14.5434 6.08439 14.45 6.08764 14.3548L6.2019 11.1087C6.22241 10.4847 5.45482 10.1741 5.03587 10.637L2.86201 13.0511C2.79822 13.1219 2.75032 13.2056 2.72153 13.2964C2.69275 13.3873 2.68374 13.4833 2.69512 13.5779C2.7065 13.6725 2.738 13.7637 2.7875 13.8451C2.837 13.9266 2.90337 13.9965 2.98213 14.0501ZM7.23903 10.8304L8.96171 13.5843C9.01239 13.6653 9.07979 13.7345 9.15939 13.7873C9.23898 13.8402 9.32894 13.8754 9.42324 13.8906C9.51755 13.9059 9.61402 13.9008 9.70621 13.8758C9.7984 13.8508 9.88418 13.8063 9.95781 13.7455C10.6106 13.2057 11.1376 12.5297 11.5018 11.765C11.5423 11.6789 11.5641 11.5853 11.5658 11.4902C11.5675 11.3951 11.5491 11.3008 11.5117 11.2133C11.4744 11.1259 11.4189 11.0473 11.3491 10.9828C11.2792 10.9184 11.1964 10.8694 11.1063 10.8392L8.01833 9.83427C7.4236 9.64384 6.9109 10.2972 7.24196 10.8274L7.23903 10.8304ZM11.5838 6.95727C11.2462 6.18055 10.7421 5.48746 10.1072 4.92697C10.0357 4.86457 9.9517 4.81807 9.86084 4.79054C9.76998 4.763 9.67432 4.75507 9.58017 4.76725C9.48601 4.77944 9.39552 4.81146 9.31466 4.86122C9.23381 4.91097 9.16443 4.97732 9.11112 5.05588L7.29469 7.7483C6.94605 8.26686 7.43239 8.93777 8.03298 8.76492L11.159 7.86842C11.2505 7.84143 11.3352 7.79532 11.4076 7.73314C11.4799 7.67095 11.5383 7.59411 11.5787 7.5077C11.6191 7.42129 11.6408 7.32728 11.6422 7.23189C11.6435 7.13649 11.6247 7.04189 11.5867 6.95434L11.5838 6.95727ZM2.25556 0.883944C2.17269 0.924019 2.09895 0.980718 2.03894 1.05051C1.97892 1.12031 1.93391 1.20171 1.90671 1.28964C1.8795 1.37758 1.87068 1.47017 1.8808 1.56167C1.89092 1.65316 1.91975 1.74159 1.96551 1.82146L5.01536 7.10669C5.35814 7.69849 6.26343 7.45533 6.26343 6.7727V0.670074C6.26412 0.577872 6.24564 0.486533 6.20915 0.401856C6.17266 0.317179 6.11896 0.241016 6.05146 0.178201C5.98396 0.115387 5.90414 0.0672939 5.81706 0.0369771C5.72999 0.00666026 5.63756 -0.00521831 5.54564 0.00209569C4.40434 0.0929408 3.28929 0.39181 2.25556 0.883944Z" fill="#2F4157"/>
</svg>
