<svg width="20" height="15" viewBox="0 0 20 15" fill="none" xmlns="http://www.w3.org/2000/svg">
<path d="M19.061 2.13547C18.9749 1.70153 18.7825 1.30443 18.5138 0.976383C18.4571 0.904906 18.3979 0.840894 18.3338 0.776881C17.8577 0.29845 17.1895 0 16.4595 0H2.65086C1.92089 0 1.25509 0.29845 0.77677 0.776881C0.712757 0.840894 0.65356 0.904906 0.596751 0.976383C0.3279 1.30439 0.13549 1.70153 0.0517324 2.13547C0.0173188 2.30295 0 2.47602 0 2.651V12.3493C0 12.7213 0.0789049 13.079 0.21962 13.4019C0.350145 13.7102 0.542593 13.9892 0.776732 14.2231C0.836079 14.2823 0.895015 14.3367 0.959326 14.3909C1.4179 14.7706 2.00984 15 2.65086 15H16.4595C17.1008 15 17.6953 14.7706 18.1512 14.3885C18.2153 14.3367 18.2746 14.2823 18.3338 14.2231C18.5678 13.9892 18.7602 13.7102 18.8934 13.4019V13.3995C19.0341 13.0766 19.1103 12.7213 19.1103 12.3493V2.651C19.1104 2.47602 19.0933 2.30295 19.061 2.13547ZM1.73595 1.73595C1.97277 1.49938 2.29082 1.35616 2.65086 1.35616H16.4595C16.8196 1.35616 17.1404 1.49938 17.3744 1.73595C17.4163 1.77809 17.4558 1.82504 17.4906 1.8717L10.253 8.17943C10.0534 8.35437 9.80683 8.44077 9.55519 8.44077C9.30608 8.44077 9.05966 8.35437 8.8574 8.17943L1.62259 1.86901C1.65462 1.82235 1.69407 1.77809 1.73595 1.73595ZM1.35616 12.3493V3.27239L6.59375 7.84152L1.35881 12.4058C1.35616 12.3885 1.35616 12.369 1.35616 12.3493ZM16.4595 13.6436H2.65086C2.41642 13.6436 2.19706 13.582 2.00984 13.4737L7.53311 8.66028L8.04875 9.10886C8.48027 9.48382 9.02025 9.67373 9.55519 9.67373C10.0929 9.67373 10.6328 9.48382 11.0643 9.10886L11.5797 8.66028L17.1008 13.4737C16.9133 13.582 16.694 13.6436 16.4595 13.6436ZM17.7542 12.3493C17.7542 12.369 17.7542 12.3885 17.7517 12.4058L12.5168 7.84417L17.7542 3.27482V12.3493Z" fill="#2F4157"/>
</svg>
