<svg width="16" height="15" viewBox="0 0 16 15" fill="none" xmlns="http://www.w3.org/2000/svg">
<path d="M10.8481 10.2496L11.2174 9.88238L10.3598 9.01994L9.99058 9.38715L10.8481 10.2496ZM12.4576 9.72857L14.0066 10.5707L14.5875 9.5022L13.0384 8.66011L12.4576 9.72857ZM14.3048 12.2443L13.153 13.3896L14.0105 14.252L15.1623 13.1068L14.3048 12.2443ZM12.4512 13.7583C11.2756 13.8678 8.23415 13.7702 4.94117 10.4959L4.08364 11.3584C7.67714 14.9314 11.0973 15.1059 12.564 14.9692L12.4512 13.7583ZM4.94117 10.4959C1.80228 7.37484 1.28232 4.74976 1.21759 3.61092L0.00336379 3.67993C0.0848163 5.11328 0.728644 8.02242 4.08364 11.3584L4.94117 10.4959ZM6.05627 5.48496L6.28881 5.25373L5.43131 4.39131L5.19877 4.62253L6.05627 5.48496ZM6.47392 2.30632L5.45154 0.940614L4.47795 1.66947L5.50031 3.03518L6.47392 2.30632ZM2.01294 0.64336L0.74032 1.90876L1.59785 2.77119L2.87047 1.50579L2.01294 0.64336ZM5.62753 5.05375C5.19877 4.62253 5.19819 4.62311 5.1976 4.62369C5.19741 4.62389 5.19682 4.62448 5.19643 4.62488C5.19563 4.62568 5.19482 4.62649 5.194 4.62733C5.19236 4.629 5.19065 4.63075 5.1889 4.63256C5.18539 4.6362 5.18168 4.64014 5.17777 4.64439C5.16995 4.65288 5.16136 4.6626 5.15217 4.67357C5.13379 4.6955 5.11296 4.72251 5.09106 4.75482C5.04718 4.81959 4.99935 4.90523 4.95877 5.01294C4.87597 5.23271 4.83158 5.52241 4.88723 5.88115C4.99607 6.58271 5.47923 7.50943 6.71691 8.74005L7.57441 7.87761C6.41619 6.72595 6.14027 6.0251 6.08903 5.6947C6.06463 5.53746 6.08992 5.46007 6.0969 5.44175C6.10111 5.43041 6.10314 5.42925 6.09795 5.43699C6.09536 5.44078 6.09106 5.44671 6.08433 5.45469C6.081 5.45869 6.07703 5.46322 6.07241 5.46826C6.07006 5.47078 6.06763 5.47343 6.06487 5.47621C6.06357 5.47761 6.06219 5.47903 6.06074 5.48048C6.06001 5.48122 6.05928 5.48195 6.05855 5.4827C6.05822 5.48307 6.05765 5.48364 6.05741 5.48383C6.05684 5.48439 6.05627 5.48496 5.62753 5.05375ZM6.71691 8.74005C7.955 9.97108 8.88603 10.4502 9.58875 10.558C9.94785 10.6131 10.2374 10.5691 10.457 10.4873C10.5647 10.4472 10.6505 10.3999 10.7153 10.3565C10.7478 10.3347 10.7749 10.314 10.7968 10.2958C10.8079 10.2867 10.8176 10.2782 10.8261 10.2704C10.8304 10.2665 10.8344 10.2629 10.838 10.2594C10.8399 10.2576 10.8416 10.2559 10.8433 10.2543C10.8441 10.2535 10.8449 10.2527 10.8457 10.2519C10.8461 10.2515 10.8468 10.2509 10.8469 10.2507C10.8475 10.2502 10.8481 10.2496 10.4193 9.81833C9.99058 9.38715 9.99115 9.38658 9.99171 9.38601C9.99188 9.38585 9.99244 9.38528 9.99285 9.38488C9.99358 9.38415 9.99431 9.38342 9.99504 9.38269C9.99658 9.38131 9.99796 9.37993 9.99934 9.37855C10.0022 9.37588 10.0048 9.37345 10.0074 9.37109C10.0124 9.36655 10.0169 9.36258 10.021 9.35934C10.0289 9.35269 10.0348 9.34847 10.0385 9.34596C10.046 9.34093 10.0445 9.3432 10.0325 9.34766C10.0126 9.35504 9.93309 9.38042 9.7732 9.35585C9.4381 9.30453 8.73231 9.02886 7.57441 7.87761L6.71691 8.74005ZM5.45154 0.940614C4.62509 -0.163357 2.99995 -0.338042 2.01294 0.64336L2.87047 1.50579C3.30156 1.07714 4.06718 1.12077 4.47795 1.66947L5.45154 0.940614ZM1.21759 3.61092C1.20165 3.3303 1.33035 3.03716 1.59785 2.77119L0.74032 1.90876C0.304663 2.34194 -0.0378327 2.95515 0.00336379 3.67993L1.21759 3.61092ZM13.153 13.3896C12.9302 13.6111 12.6913 13.7359 12.4512 13.7583L12.564 14.9692C13.1597 14.9137 13.6477 14.6128 14.0105 14.252L13.153 13.3896ZM6.28881 5.25373C7.08704 4.46003 7.14639 3.20459 6.47392 2.30632L5.50031 3.03518C5.82747 3.47219 5.77882 4.04577 5.43131 4.39131L6.28881 5.25373ZM14.0066 10.5707C14.6697 10.9311 14.773 11.7788 14.3048 12.2443L15.1623 13.1068C16.249 12.0262 15.9139 10.2232 14.5875 9.5022L14.0066 10.5707ZM11.2174 9.88238C11.5287 9.57282 12.0299 9.49612 12.4576 9.72857L13.0384 8.66011C12.1599 8.18247 11.0695 8.31439 10.3598 9.01994L11.2174 9.88238Z" fill="#2F4157"/>
</svg>
