<svg width="26" height="20" viewBox="0 0 26 20" fill="none" xmlns="http://www.w3.org/2000/svg">
<path d="M25.4147 2.8473C25.2998 2.26871 25.0433 1.73924 24.685 1.30184C24.6095 1.20654 24.5306 1.12119 24.445 1.03584C23.8102 0.397934 22.9193 0 21.946 0H3.53447C2.56119 0 1.67345 0.397934 1.03569 1.03584C0.950343 1.12119 0.871413 1.20654 0.795668 1.30184C0.4372 1.73919 0.180653 2.26871 0.0689765 2.8473C0.0230917 3.0706 0 3.30137 0 3.53467V16.4657C0 16.9618 0.105207 17.4386 0.292827 17.8692C0.46686 18.2803 0.723457 18.6523 1.03564 18.9642C1.11477 19.0431 1.19335 19.1156 1.2791 19.1878C1.89053 19.6942 2.67978 20 3.53447 20H21.946C22.801 20 23.5937 19.6942 24.2016 19.1846C24.2871 19.1156 24.3661 19.0431 24.445 18.9642C24.757 18.6523 25.0136 18.2803 25.1912 17.8692V17.8661C25.3788 17.4354 25.4804 16.9617 25.4804 16.4657V3.53467C25.4805 3.30137 25.4578 3.0706 25.4147 2.8473ZM2.31459 2.31459C2.63036 1.99917 3.05443 1.80822 3.53447 1.80822H21.946C22.4261 1.80822 22.8539 1.99917 23.1659 2.31459C23.2217 2.37078 23.2743 2.43339 23.3208 2.4956L13.6707 10.9059C13.4045 11.1392 13.0758 11.2544 12.7402 11.2544C12.4081 11.2544 12.0795 11.1392 11.8099 10.9059L2.16345 2.49201C2.20615 2.4298 2.25876 2.37078 2.31459 2.31459ZM1.80822 16.4657V4.36319L8.79167 10.4554L1.81175 16.5411C1.80822 16.518 1.80822 16.492 1.80822 16.4657ZM21.946 18.1914H3.53447C3.22189 18.1914 2.92941 18.1093 2.67978 17.9649L10.0441 11.547L10.7317 12.1451C11.307 12.6451 12.027 12.8983 12.7402 12.8983C13.4572 12.8983 14.1771 12.6451 14.7524 12.1451L15.4396 11.547L22.8011 17.9649C22.5511 18.1093 22.2586 18.1914 21.946 18.1914ZM23.6723 16.4657C23.6723 16.492 23.6723 16.518 23.6689 16.5411L16.689 10.4589L23.6723 4.36642V16.4657Z" fill="#C7D9E5"/>
</svg>
