<svg width="20" height="21" viewBox="0 0 20 21" fill="none" xmlns="http://www.w3.org/2000/svg">
<path d="M11.5385 2.05555C11.5385 1.20459 10.851 0.51709 10 0.51709C9.14904 0.51709 8.46154 1.20459 8.46154 2.05555V8.97863H1.53846C0.6875 8.97863 0 9.66613 0 10.5171C0 11.3681 0.6875 12.0556 1.53846 12.0556H8.46154V18.9786C8.46154 19.8296 9.14904 20.5171 10 20.5171C10.851 20.5171 11.5385 19.8296 11.5385 18.9786V12.0556H18.4615C19.3125 12.0556 20 11.3681 20 10.5171C20 9.66613 19.3125 8.97863 18.4615 8.97863H11.5385V2.05555Z" fill="#577C8E"/>
</svg>
