<svg width="64" height="64" viewBox="0 0 64 64" fill="none" xmlns="http://www.w3.org/2000/svg">
<circle cx="32" cy="32" r="32" fill="#577C8E"/>
<path d="M15.5173 21.4872C10.8276 26.1404 10.8276 33.6871 15.5172 38.3402L19.6728 42.4686C19.9908 42.7844 20.5046 42.7827 20.8204 42.4648C21.1363 42.1469 21.1346 41.6331 20.8167 41.3172L16.6607 37.1884C12.6105 33.1698 12.6105 26.6577 16.6604 22.6394C20.7142 18.6176 27.2889 18.6176 31.3427 22.6394C31.659 22.9533 32.1693 22.9533 32.4857 22.6394C36.5391 18.6176 43.1142 18.6176 47.1676 22.6394C51.2179 26.6577 51.2179 33.1698 47.1676 37.188L45.2244 39.1195C44.9066 39.4354 44.905 39.9492 45.2209 40.267C45.5369 40.5849 46.0507 40.5865 46.3685 40.2705L48.3112 38.3396C53.0008 33.6871 53.0008 26.1403 48.3107 21.4872C43.8106 17.0222 36.6273 16.8449 31.9142 20.9554C27.2007 16.8449 20.0178 17.0222 15.5173 21.4872L15.5173 21.4872Z" fill="#F4EFEB"/>
<path d="M34.2768 26.0071L45.2211 36.9515C45.8196 37.55 45.8196 38.5208 45.221 39.1197C44.6223 39.7184 43.6516 39.7184 43.0532 39.1197L39.0456 35.1121C38.7287 34.7952 38.2149 34.7952 37.898 35.1121C37.5811 35.429 37.5811 35.9428 37.898 36.2597L41.9054 40.2671C43.1375 41.4998 45.136 41.4998 46.3687 40.2671C47.6009 39.0343 47.6009 37.0361 46.3687 35.8039L35.4243 24.8595C35.1074 24.5426 34.5936 24.5426 34.2767 24.8595C33.9598 25.1764 33.9598 25.6902 34.2767 26.0071L34.2768 26.0071Z" fill="#F4EFEB"/>
<path d="M33.2748 31.6084L41.8991 40.2327C42.4979 40.8316 42.4979 41.8023 41.8992 42.4007C41.3003 42.9997 40.3299 42.9997 39.731 42.4008L35.724 38.3938C35.4071 38.0769 34.8933 38.0769 34.5764 38.3938C34.2595 38.7107 34.2595 39.2245 34.5764 39.5414L38.5834 43.5484C39.8161 44.7811 41.8141 44.7811 43.0467 43.5484C44.2794 42.3163 44.2794 40.3178 43.0467 39.0852L34.4224 30.4608C34.1055 30.1439 33.5917 30.1439 33.2748 30.4608C32.9579 30.7777 32.9579 31.2915 33.2748 31.6084Z" fill="#F4EFEB"/>
<path d="M30.0184 34.9954L38.5778 43.5548C39.1766 44.1536 39.1766 45.1244 38.5779 45.7228C37.9789 46.3218 37.0085 46.3218 36.4097 45.7229L26.3215 35.6347C26.0046 35.3178 25.4908 35.3178 25.1739 35.6347C24.857 35.9516 24.857 36.4654 25.1739 36.7823L35.2621 46.8705C36.4948 48.1032 38.4928 48.1032 39.7254 46.8705C40.9581 45.6384 40.9581 43.6399 39.7254 42.4072L31.166 33.8478C30.8491 33.5309 30.3353 33.5309 30.0184 33.8478C29.7015 34.1647 29.7015 34.6785 30.0184 34.9954ZM34.1622 24.8173L27.715 31.2239C27.5234 31.4155 27.2439 31.4854 26.9867 31.4073L25.1197 30.8386C24.8264 30.7494 24.7342 30.3803 24.9509 30.1635L32.7027 22.4116C33.0196 22.0947 33.0196 21.5809 32.7027 21.264C32.3858 20.9471 31.872 20.9471 31.5551 21.264L23.8031 29.016C22.7204 30.0995 23.1819 31.9456 24.6472 32.3912L26.5144 32.96C27.3453 33.2123 28.2473 32.9868 28.8608 32.3733L35.3061 25.9685C35.624 25.6526 35.6257 25.1388 35.3097 24.8209C34.9938 24.503 34.4801 24.5014 34.1622 24.8173Z" fill="#F4EFEB"/>
<path d="M25.2406 38.9566C25.809 38.3882 25.809 37.4665 25.2406 36.8981L25.1311 36.7886C24.5626 36.2201 23.6409 36.2201 23.0725 36.7886L20.7221 39.139C20.1537 39.7074 20.1537 40.6291 20.7221 41.1975L20.8317 41.3071C21.4001 41.8755 22.3218 41.8755 22.8902 41.3071L25.2406 38.9566ZM26.3883 40.1042L24.0378 42.4547C22.8356 43.6569 20.8863 43.6569 19.6841 42.4547L19.5745 42.3451C18.3723 41.1429 18.3723 39.1936 19.5745 37.9914L21.9249 35.6409C23.1272 34.4387 25.0765 34.4387 26.2787 35.6409L26.3883 35.7505C27.5905 36.9527 27.5905 38.902 26.3883 40.1042Z" fill="#F4EFEB"/>
<path d="M28.5688 40.2274L28.4592 40.1179C27.8908 39.5494 26.9691 39.5494 26.4007 40.1179L24.0503 42.4683C23.4819 43.0367 23.4819 43.9584 24.0503 44.5268L24.1598 44.6364C24.7283 45.2048 25.65 45.2048 26.2184 44.6364L28.5688 42.286C29.1372 41.7175 29.1372 40.7958 28.5688 40.2274ZM27.366 45.784C26.1637 46.9862 24.2144 46.9862 23.0122 45.784L22.9027 45.6744C21.7004 44.4722 21.7004 42.5229 22.9027 41.3207L25.2531 38.9703C26.4553 37.768 28.4046 37.768 29.6068 38.9703L29.7164 39.0798C30.9186 40.2821 30.9186 42.2314 29.7164 43.4336L27.366 45.784Z" fill="#F4EFEB"/>
<path d="M31.8979 45.6153C32.4663 45.0469 32.4663 44.1252 31.8979 43.5568L31.7883 43.4473C31.2199 42.8788 30.2982 42.8788 29.7298 43.4473L27.3794 45.7977C26.811 46.3661 26.811 47.2878 27.3794 47.8562L27.4889 47.9658C28.0574 48.5342 28.9791 48.5342 29.5475 47.9658L31.8979 45.6153ZM33.0455 46.7629L30.6951 49.1134C29.4928 50.3156 27.5435 50.3156 26.3413 49.1134L26.2318 49.0038C25.0295 47.8016 25.0295 45.8523 26.2318 44.65L28.5822 42.2996C29.7844 41.0974 31.7337 41.0974 32.9359 42.2996L33.0455 42.4092C34.2477 43.6114 34.2477 45.5607 33.0455 46.7629Z" fill="#F4EFEB"/>
<path d="M35.228 46.8859L35.1184 46.7764C34.55 46.2079 33.6283 46.2079 33.0599 46.7764L30.7095 49.1268C30.141 49.6952 30.141 50.6169 30.7095 51.1853L30.819 51.2949C31.3875 51.8633 32.3092 51.8633 32.8775 51.2949L35.228 48.9444C35.7964 48.376 35.7964 47.4543 35.228 46.8859ZM34.0251 52.4425C32.8229 53.6447 30.8736 53.6447 29.6714 52.4425L29.5618 52.3329C28.3596 51.1307 28.3596 49.1814 29.5618 47.9791L31.9123 45.6287C33.1145 44.4265 35.0638 44.4265 36.266 45.6287L36.3756 45.7383C37.5778 46.9405 37.5778 48.8898 36.3756 50.092L34.0251 52.4425Z" fill="#F4EFEB"/>
</svg>
