<svg width="158" height="174" viewBox="0 0 158 174" fill="none" xmlns="http://www.w3.org/2000/svg">
<path d="M91.2973 151.159C92.8724 151.159 94.1463 149.885 94.1463 148.31V135.217C94.1463 133.642 92.8724 132.368 91.2973 132.368H64.4271C62.852 132.368 61.5781 133.642 61.5781 135.217V148.31C61.5781 149.885 62.852 151.159 64.4271 151.159H91.2973ZM67.2761 138.066H88.4483V145.461H67.2761V138.066Z" fill="#577C8E"/>
<path d="M132.892 151.159C134.467 151.159 135.741 149.885 135.741 148.31V135.217C135.741 133.642 134.467 132.368 132.892 132.368H106.022C104.447 132.368 103.173 133.642 103.173 135.217V148.31C103.173 149.885 104.447 151.159 106.022 151.159H132.892ZM108.875 138.066H130.047V145.461H108.875V138.066Z" fill="#577C8E"/>
<path d="M42.1761 39.5684C45.2815 41.6848 48.9608 42.8326 52.7622 42.8326C54.3414 42.8326 55.888 42.6372 57.3939 42.2546C61.8057 54.4809 73.4378 62.7797 86.6694 62.7797C103.837 62.7797 117.801 48.8155 117.801 31.6482C117.801 14.4809 103.841 0.512695 86.6735 0.512695C78.3951 0.512695 70.5603 3.7687 64.7524 9.53996C61.4028 6.76422 57.1741 5.21762 52.7663 5.21762C46.6491 5.21762 40.9999 8.1643 37.4915 13.0524C36.1647 12.6739 34.7891 12.4826 33.3808 12.4826C25.1269 12.4826 18.4114 19.1981 18.4114 27.452C18.4114 35.706 25.1269 42.4215 33.3808 42.4215C36.5921 42.4215 39.6405 41.4244 42.1761 39.5684ZM24.1094 27.452C24.1094 22.3401 28.2689 18.1806 33.3808 18.1806C34.7972 18.1806 36.1607 18.494 37.4264 19.1085C38.8062 19.7801 40.4667 19.2388 41.1871 17.8835C43.4745 13.5855 47.9108 10.9197 52.7663 10.9197C56.588 10.9197 60.2103 12.5884 62.7093 15.4944C63.2506 16.1252 64.0402 16.4875 64.8705 16.4875C64.8786 16.4875 64.8867 16.4875 64.8989 16.4875C65.7374 16.4793 66.531 16.1008 67.0683 15.4537C71.9238 9.58473 79.0707 6.21477 86.6775 6.21477C100.703 6.21477 112.111 17.623 112.111 31.6482C112.111 45.6734 100.703 57.0817 86.6775 57.0817C77.7154 57.0817 69.6568 52.4215 65.1065 45.1403C65.0943 45.1158 65.0821 45.0914 65.0658 45.067C64.2884 43.8175 63.625 42.511 63.0797 41.1557C63.0756 41.1476 63.0715 41.1395 63.0674 41.1313C62.9942 40.9522 62.9291 40.7691 62.8599 40.59C62.807 40.4557 62.7581 40.3173 62.7093 40.183C62.6564 40.0324 62.6035 39.8818 62.5546 39.7312C62.4936 39.5522 62.4366 39.3731 62.3837 39.194C62.343 39.0678 62.3064 38.9376 62.2657 38.8073C62.2005 38.5835 62.1395 38.3556 62.0784 38.1277C61.529 36.0275 61.24 33.8542 61.24 31.6523C61.24 29.4789 61.5127 27.3177 62.054 25.2339C62.4488 23.7117 61.5371 22.157 60.0109 21.7581C58.4887 21.3633 56.9339 22.275 56.5351 23.8012C55.8717 26.3531 55.5379 28.9946 55.5379 31.6523C55.5379 33.3657 55.6804 35.067 55.9571 36.7439C54.9193 37.0043 53.8489 37.1427 52.7581 37.1427C49.8114 37.1427 46.9706 36.1537 44.671 34.3426C44.5164 34.2205 44.3617 34.0943 44.2111 33.964C44.1419 33.903 44.0727 33.846 44.0036 33.785C42.3552 32.3076 41.1098 30.4476 40.3772 28.3556C39.8603 26.87 38.2323 26.0845 36.7467 26.6055C35.2612 27.1224 34.4757 28.7504 34.9966 30.2359C35.6723 32.1692 36.6613 33.9559 37.9026 35.5554C36.5351 36.3246 34.9885 36.7357 33.3727 36.7357C28.2689 36.7235 24.1094 32.564 24.1094 27.452Z" fill="#577C8E"/>
<path d="M4.0808 134.892L0.0189352 170.313C-0.0746748 171.119 0.181734 171.929 0.723044 172.535C1.26435 173.142 2.03766 173.488 2.84759 173.488H48.0612H154.781C156.356 173.488 157.63 172.214 157.63 170.639V95.9337C157.63 94.3586 156.356 93.0847 154.781 93.0847H137.67C136.095 93.0847 134.821 94.3586 134.821 95.9337V107.419L125.363 94.269C124.826 93.5242 123.967 93.0847 123.051 93.0847H106.026C104.451 93.0847 103.177 94.3586 103.177 95.9337V107.419L93.7185 94.269C93.1813 93.5242 92.3225 93.0847 91.4068 93.0847H74.3819C72.8068 93.0847 71.5329 94.3586 71.5329 95.9337V107.415L62.0783 94.269C61.5411 93.5242 60.6823 93.0847 59.7666 93.0847H51.6754C50.1003 93.0847 48.8264 94.3586 48.8264 95.9337C48.8264 97.5088 50.1003 98.7827 51.6754 98.7827H58.3095L72.0742 117.92C72.7946 118.925 74.0848 119.348 75.2611 118.97C76.4373 118.591 77.235 117.497 77.235 116.259V98.7827H89.9497L103.719 117.924C104.439 118.929 105.729 119.352 106.905 118.97C108.082 118.591 108.879 117.497 108.879 116.259V98.7827H121.594L135.363 117.924C136.083 118.929 137.373 119.352 138.55 118.97C139.726 118.591 140.524 117.497 140.524 116.259V98.7827H151.936V167.79H50.6009L42.3225 95.6081C42.3225 95.5999 42.3185 95.5959 42.3185 95.5877L38.9851 66.5483C38.9851 66.532 38.9811 66.5116 39.0055 66.4872C39.0299 66.4628 39.0503 66.4628 39.0625 66.4628C42.2493 66.4628 44.8419 63.8702 44.8419 60.6875V49.2955C44.8419 47.7204 43.568 46.4465 41.9929 46.4465H8.91596C7.34087 46.4465 6.06696 47.7204 6.06696 49.2955V60.6875C6.06696 63.8743 8.65955 66.4628 11.8464 66.4628C11.8626 66.4628 11.883 66.4628 11.9074 66.4872C11.9318 66.5116 11.9278 66.532 11.9278 66.5483L6.73037 111.803C6.55129 113.366 7.67461 114.778 9.23749 114.957C10.8004 115.136 12.2127 114.013 12.3917 112.45L17.5851 67.1954C17.7723 65.5593 17.2513 63.9191 16.1565 62.6899C15.0617 61.4608 13.4906 60.7567 11.8464 60.7567C11.8016 60.7567 11.769 60.72 11.769 60.6793V52.1364H39.1479V60.6793C39.1479 60.7241 39.1113 60.7567 39.0665 60.7567C37.4223 60.7567 35.8512 61.4608 34.7564 62.6899C33.6616 63.9191 33.1406 65.5593 33.3278 67.1954L44.8704 167.785H6.04254L9.74217 135.535C9.92125 133.972 8.79793 132.56 7.23505 132.381C5.67217 132.201 4.25988 133.329 4.0808 134.892Z" fill="#577C8E"/>
<path d="M5.86783 125.255C5.96958 125.409 6.09168 125.556 6.22192 125.686C6.35216 125.82 6.49868 125.938 6.65334 126.04C6.808 126.146 6.97488 126.231 7.14582 126.305C7.32083 126.374 7.49991 126.431 7.67899 126.467C7.86214 126.504 8.05342 126.52 8.23657 126.52C8.98546 126.52 9.72213 126.215 10.2512 125.686C10.3815 125.556 10.5036 125.409 10.6053 125.255C10.7071 125.1 10.7966 124.933 10.8658 124.762C10.9391 124.591 10.992 124.412 11.0286 124.229C11.0652 124.046 11.0856 123.859 11.0856 123.671C11.0856 123.488 11.0652 123.301 11.0286 123.114C10.992 122.935 10.9391 122.756 10.8658 122.585C10.7966 122.41 10.7071 122.247 10.6053 122.092C10.5036 121.933 10.3815 121.791 10.2512 121.657C9.72213 121.128 8.98546 120.822 8.23657 120.822C7.48769 120.822 6.75103 121.128 6.22192 121.657C6.09168 121.791 5.96958 121.933 5.86783 122.092C5.76608 122.247 5.67654 122.41 5.60735 122.585C5.53409 122.756 5.48119 122.935 5.44456 123.114C5.40793 123.301 5.38757 123.488 5.38757 123.671C5.38757 123.859 5.40793 124.046 5.44456 124.229C5.48119 124.412 5.53409 124.591 5.60735 124.762C5.67654 124.933 5.76608 125.1 5.86783 125.255Z" fill="#577C8E"/>
</svg>
