<svg width="147" height="174" viewBox="0 0 147 174" fill="none" xmlns="http://www.w3.org/2000/svg">
<path d="M29.4307 84.2998C22.7598 93.3964 18.3193 101.907 18.3193 113.881C18.3193 115.456 19.5933 116.73 21.1684 116.73C22.7435 116.73 24.0175 115.456 24.0175 113.881C24.0175 103.421 27.8474 96.0949 34.0258 87.6698C34.9579 86.3999 34.6811 84.6172 33.4153 83.6893C32.1414 82.7531 30.3587 83.0299 29.4307 84.2998Z" fill="#577C8E"/>
<path d="M138.302 132.628C138.196 132.474 138.078 132.327 137.948 132.197C137.285 131.533 136.3 131.232 135.376 131.415C135.193 131.452 135.013 131.509 134.843 131.578C134.672 131.651 134.505 131.741 134.35 131.843C134.195 131.944 134.049 132.062 133.919 132.197C133.784 132.327 133.666 132.474 133.565 132.628C133.459 132.783 133.373 132.95 133.3 133.121C133.231 133.292 133.174 133.471 133.137 133.654C133.101 133.837 133.084 134.024 133.084 134.212C133.084 134.395 133.101 134.582 133.137 134.765C133.174 134.948 133.231 135.127 133.3 135.298C133.373 135.473 133.459 135.636 133.565 135.791C133.666 135.945 133.784 136.092 133.919 136.226C134.049 136.356 134.195 136.474 134.35 136.58C134.505 136.682 134.672 136.772 134.843 136.841C135.013 136.914 135.193 136.967 135.376 137.004C135.559 137.04 135.746 137.061 135.929 137.061C136.116 137.061 136.304 137.04 136.487 137.004C136.67 136.967 136.849 136.914 137.02 136.841C137.195 136.772 137.358 136.682 137.512 136.58C137.667 136.474 137.814 136.356 137.948 136.226C138.078 136.092 138.196 135.945 138.302 135.791C138.404 135.636 138.489 135.473 138.563 135.298C138.636 135.127 138.689 134.948 138.725 134.765C138.762 134.582 138.782 134.395 138.782 134.212C138.782 134.024 138.762 133.837 138.725 133.654C138.689 133.471 138.636 133.292 138.563 133.121C138.489 132.95 138.404 132.783 138.302 132.628Z" fill="#577C8E"/>
<path d="M139.702 128.932C141.131 129.584 142.824 128.957 143.475 127.524C145.726 122.591 146.865 117.308 146.865 111.822C146.865 97.3444 140.003 88.2518 127.87 73.4203C122.697 67.1036 116.832 59.9402 111.435 51.4825C110.91 50.6644 110.007 50.1679 109.034 50.1679C109.034 50.1679 109.034 50.1679 109.03 50.1679C108.057 50.1679 107.149 50.6685 106.628 51.4907C103.478 56.4521 100.198 60.8844 97.5399 64.3196C96.4816 63.0131 95.4031 61.6944 94.2879 60.335C82.3136 45.703 68.7439 29.1214 62.3702 2.69427C62.0608 1.41626 60.9171 0.512695 59.5984 0.512695C58.2797 0.512695 57.136 1.41626 56.8308 2.69427C50.3959 29.4429 36.7896 46.0205 24.7828 60.6484C12.0393 76.1758 0 90.8444 0 113.885C0 126.067 3.64681 137.777 10.5497 147.748C21.6936 163.866 40.0294 173.488 59.6025 173.488C72.9483 173.488 85.5616 169.178 96.0828 161.025C97.3282 160.061 97.5521 158.27 96.5915 157.028C95.6269 155.783 93.8361 155.559 92.5947 156.52C83.0829 163.89 71.6744 167.79 59.6066 167.79C41.9057 167.79 25.3201 159.088 15.2425 144.509C9.00305 135.493 5.70221 124.903 5.70221 113.885C5.70221 92.8795 16.5897 79.6191 29.1907 64.2626C40.0823 50.9941 52.2478 36.1749 59.6106 13.769C66.9287 35.8981 79.0413 50.6929 89.8799 63.9411C91.2719 65.6424 92.6069 67.2704 93.9134 68.8944C93.8849 68.927 93.8605 68.9595 93.832 68.9961C93.2744 69.6881 92.7209 70.3678 92.1714 71.0393C91.9923 71.2591 91.8092 71.4789 91.6301 71.6987C91.105 72.3418 90.5841 72.9767 90.0672 73.6076L89.9613 73.7378C77.922 88.4064 71.1087 97.4095 71.1087 111.822C71.1087 119.563 73.4245 127.003 77.808 133.336C78.8133 134.789 79.9082 136.161 81.0885 137.447C87.21 144.118 95.5089 148.392 104.597 149.45C104.947 149.49 105.302 149.527 105.652 149.56C106.755 149.657 107.874 149.706 108.989 149.706C116.881 149.706 124.455 147.289 130.902 142.722C132.185 141.81 132.49 140.032 131.578 138.749C130.666 137.467 128.888 137.166 127.606 138.074C122.131 141.957 115.693 144.008 108.989 144.008C108.041 144.008 107.084 143.967 106.152 143.886C96.5875 143.039 87.967 138.013 82.4968 130.101C78.7767 124.724 76.8068 118.407 76.8068 111.826C76.8068 99.3062 82.5049 91.805 94.3652 77.3561L94.471 77.2259C96.1845 75.1379 97.955 72.9808 99.7662 70.7097C99.7744 70.7015 99.7825 70.6893 99.7906 70.6812C102.2 67.653 105.578 63.3062 109.034 58.2063C113.898 65.3616 118.936 71.5155 123.458 77.0387C135.416 91.6544 141.163 99.241 141.163 111.83C141.163 116.494 140.194 120.984 138.286 125.168C137.638 126.588 138.269 128.277 139.702 128.932Z" fill="#577C8E"/>
<path d="M92.1222 97.4625C90.7587 96.6729 89.0167 97.1409 88.2312 98.5004C85.6141 103.026 84.5437 106.885 84.5437 111.814C84.5437 113.987 84.8286 116.14 85.3862 118.212C85.7281 119.482 86.8799 120.32 88.1335 120.32C88.3777 120.32 88.6301 120.288 88.8784 120.222C90.3965 119.811 91.296 118.248 90.8849 116.73C90.4575 115.139 90.2378 113.486 90.2378 111.818C90.2378 107.874 91.0314 105.037 93.1601 101.358C93.9497 99.9941 93.4857 98.2521 92.1222 97.4625Z" fill="#577C8E"/>
</svg>
