<svg width="26" height="20" viewBox="0 0 26 20" fill="none" xmlns="http://www.w3.org/2000/svg">
<path d="M25.6051 2.8473C25.4903 2.26871 25.2337 1.73924 24.8755 1.30184C24.7999 1.20654 24.721 1.12119 24.6354 1.03584C24.0007 0.397934 23.1097 0 22.1365 0H3.7249C2.75162 0 1.86388 0.397934 1.22612 1.03584C1.14077 1.12119 1.06184 1.20654 0.986098 1.30184C0.627629 1.73919 0.371082 2.26871 0.259406 2.8473C0.213521 3.0706 0.19043 3.30137 0.19043 3.53467V16.4657C0.19043 16.9618 0.295636 17.4386 0.483256 17.8692C0.65729 18.2803 0.913887 18.6523 1.22607 18.9642C1.3052 19.0431 1.38378 19.1156 1.46953 19.1878C2.08096 19.6942 2.87021 20 3.7249 20H22.1365C22.9914 20 23.7841 19.6942 24.392 19.1846C24.4775 19.1156 24.5565 19.0431 24.6354 18.9642C24.9475 18.6523 25.204 18.2803 25.3816 17.8692V17.8661C25.5692 17.4354 25.6709 16.9617 25.6709 16.4657V3.53467C25.6709 3.30137 25.6482 3.0706 25.6051 2.8473ZM2.50502 2.31459C2.82079 1.99917 3.24485 1.80822 3.7249 1.80822H22.1365C22.6165 1.80822 23.0443 1.99917 23.3563 2.31459C23.4122 2.37078 23.4648 2.43339 23.5112 2.4956L13.8611 10.9059C13.595 11.1392 13.2662 11.2544 12.9307 11.2544C12.5985 11.2544 12.27 11.1392 12.0003 10.9059L2.35388 2.49201C2.39658 2.4298 2.44919 2.37078 2.50502 2.31459ZM1.99865 16.4657V4.36319L8.9821 10.4554L2.00218 16.5411C1.99865 16.518 1.99865 16.492 1.99865 16.4657ZM22.1365 18.1914H3.7249C3.41232 18.1914 3.11984 18.1093 2.87021 17.9649L10.2346 11.547L10.9221 12.1451C11.4974 12.6451 12.2174 12.8983 12.9307 12.8983C13.6476 12.8983 14.3675 12.6451 14.9428 12.1451L15.63 11.547L22.9915 17.9649C22.7415 18.1093 22.449 18.1914 22.1365 18.1914ZM23.8627 16.4657C23.8627 16.492 23.8627 16.518 23.8593 16.5411L16.8795 10.4589L23.8627 4.36642V16.4657Z" fill="#F4EFEB"/>
</svg>
