<svg width="170" height="200" viewBox="0 0 170 200" fill="none" xmlns="http://www.w3.org/2000/svg">
<path d="M34.029 96.8779C26.3159 107.396 21.1816 117.236 21.1816 131.081C21.1816 132.902 22.6546 134.375 24.4758 134.375C26.2971 134.375 27.77 132.902 27.77 131.081C27.77 118.987 32.1984 110.516 39.3421 100.774C40.4197 99.3062 40.0997 97.245 38.6362 96.172C37.1632 95.0896 35.102 95.4096 34.029 96.8779Z" fill="#F4EFEB"/>
<path d="M159.91 152.757C159.788 152.578 159.651 152.409 159.501 152.258C158.734 151.491 157.595 151.143 156.526 151.355C156.315 151.397 156.108 151.463 155.91 151.543C155.712 151.628 155.519 151.731 155.341 151.849C155.162 151.966 154.992 152.103 154.842 152.258C154.686 152.409 154.55 152.578 154.432 152.757C154.31 152.936 154.211 153.129 154.126 153.326C154.046 153.524 153.98 153.731 153.938 153.943C153.896 154.155 153.877 154.371 153.877 154.588C153.877 154.799 153.896 155.016 153.938 155.228C153.98 155.439 154.046 155.646 154.126 155.844C154.211 156.046 154.31 156.235 154.432 156.414C154.55 156.592 154.686 156.762 154.842 156.917C154.992 157.068 155.162 157.204 155.341 157.327C155.519 157.444 155.712 157.548 155.91 157.628C156.108 157.712 156.315 157.774 156.526 157.816C156.738 157.858 156.955 157.882 157.166 157.882C157.383 157.882 157.599 157.858 157.811 157.816C158.023 157.774 158.23 157.712 158.428 157.628C158.63 157.548 158.818 157.444 158.997 157.327C159.176 157.204 159.345 157.068 159.501 156.917C159.651 156.762 159.788 156.592 159.91 156.414C160.028 156.235 160.127 156.046 160.211 155.844C160.296 155.646 160.357 155.439 160.399 155.228C160.442 155.016 160.465 154.799 160.465 154.588C160.465 154.371 160.442 154.155 160.399 153.943C160.357 153.731 160.296 153.524 160.211 153.326C160.127 153.129 160.028 152.936 159.91 152.757Z" fill="#F4EFEB"/>
<path d="M161.528 148.484C163.18 149.237 165.138 148.512 165.891 146.855C168.493 141.152 169.811 135.043 169.811 128.7C169.811 111.961 161.877 101.447 147.848 84.2987C141.867 76.995 135.086 68.7124 128.845 58.9334C128.238 57.9875 127.194 57.4134 126.069 57.4134C126.069 57.4134 126.069 57.4134 126.064 57.4134C124.939 57.4134 123.89 57.9922 123.288 58.9428C119.645 64.6794 115.852 69.8042 112.779 73.7761C111.556 72.2655 110.308 70.7407 109.019 69.1689C95.174 52.2509 79.4842 33.0787 72.1146 2.52266C71.757 1.04497 70.4346 0.000244141 68.9098 0.000244141C67.3851 0.000244141 66.0627 1.04497 65.7098 2.52266C58.2696 33.4504 42.5375 52.618 28.6548 69.5313C13.9203 87.4847 0 104.445 0 131.086C0 145.171 4.21657 158.71 12.1979 170.24C25.0829 188.875 46.2834 200 68.9146 200C84.3455 200 98.9294 195.017 111.094 185.59C112.534 184.475 112.793 182.405 111.683 180.969C110.567 179.529 108.497 179.27 107.061 180.381C96.0634 188.904 82.8725 193.412 68.9193 193.412C48.4529 193.412 29.276 183.35 17.6239 166.494C10.4097 156.07 6.5931 143.825 6.5931 131.086C6.5931 106.798 19.1816 91.4659 33.7514 73.7102C46.3446 58.3687 60.4108 41.2342 68.924 15.3277C77.3853 40.9141 91.3904 58.0204 103.922 73.3384C105.532 75.3055 107.075 77.1879 108.586 79.0656C108.553 79.1033 108.525 79.1409 108.492 79.1833C107.847 79.9833 107.207 80.7692 106.572 81.5457C106.365 81.7998 106.153 82.0539 105.946 82.3081C105.339 83.0516 104.737 83.7857 104.139 84.5152L104.017 84.6658C90.0962 101.626 82.2184 112.036 82.2184 128.7C82.2184 137.651 84.8961 146.253 89.9645 153.576C91.1268 155.256 92.3927 156.842 93.7575 158.329C100.835 166.042 110.431 170.983 120.939 172.207C121.344 172.254 121.753 172.296 122.158 172.334C123.433 172.447 124.728 172.503 126.017 172.503C135.142 172.503 143.9 169.708 151.354 164.428C152.837 163.374 153.189 161.317 152.135 159.835C151.081 158.352 149.025 158.004 147.542 159.053C141.213 163.543 133.768 165.915 126.017 165.915C124.921 165.915 123.815 165.868 122.737 165.774C111.678 164.795 101.711 158.983 95.3858 149.834C91.0845 143.618 88.8068 136.314 88.8068 128.704C88.8068 114.229 95.3952 105.556 109.108 88.8494L109.231 88.6988C111.212 86.2846 113.259 83.7905 115.353 81.1645C115.363 81.1551 115.372 81.141 115.382 81.1316C118.167 77.6303 122.073 72.6043 126.069 66.7077C131.692 74.9808 137.519 82.0963 142.747 88.4823C156.573 105.382 163.218 114.154 163.218 128.709C163.218 134.102 162.098 139.293 159.891 144.131C159.143 145.773 159.872 147.726 161.528 148.484Z" fill="#F4EFEB"/>
<path d="M106.515 112.097C104.939 111.184 102.925 111.725 102.016 113.297C98.9904 118.53 97.7527 122.991 97.7527 128.69C97.7527 131.203 98.0821 133.693 98.7268 136.088C99.1221 137.556 100.454 138.526 101.903 138.526C102.186 138.526 102.477 138.488 102.765 138.413C104.52 137.938 105.56 136.131 105.085 134.375C104.59 132.535 104.336 130.625 104.336 128.695C104.336 124.135 105.254 120.855 107.715 116.601C108.628 115.024 108.092 113.01 106.515 112.097Z" fill="#F4EFEB"/>
</svg>
