<svg width="201" height="200" viewBox="0 0 201 200" fill="none" xmlns="http://www.w3.org/2000/svg">
<path d="M86.5233 81.4808C83.5352 78.0974 79.1118 76.535 73.3754 76.8456C56.9852 77.7397 50.8677 75.5515 50.4395 75.3915C49.3901 74.888 48.1948 75.001 47.2255 75.6551C46.2514 76.3139 45.7478 77.4621 45.8278 78.6338C45.8702 79.2879 47.0419 94.704 57.804 103.749C62.7921 107.941 68.952 110.054 76.1565 110.054C77.5165 110.054 78.9141 109.979 80.3494 109.828C82.1564 109.635 83.4693 108.017 83.2811 106.21C83.0928 104.398 81.4741 103.094 79.6623 103.278C72.4954 104.036 66.5803 102.501 62.0769 98.7322C56.6699 94.2052 54.2418 87.3207 53.183 82.789C57.2111 83.4431 63.7521 83.9702 73.7331 83.429C77.4036 83.2267 79.9729 84.0219 81.587 85.8431C83.3517 87.843 83.8269 90.9065 83.8411 93.5794C76.3118 89.4759 69.6861 87.236 69.1685 87.0666C67.4414 86.4925 65.578 87.4242 65.0039 89.1512C64.4298 90.8782 65.3615 92.7417 67.0885 93.3158C67.2297 93.3629 76.1612 96.3793 84.7116 101.702C84.8481 101.8 84.9846 101.89 85.1352 101.97C89.5962 104.788 93.9067 108.233 96.7725 112.205V137.225C96.7725 139.047 98.2454 140.519 100.067 140.519C101.888 140.519 103.361 139.047 103.361 137.225V112.205C106.25 108.2 110.622 104.727 115.13 101.894C115.205 101.852 115.276 101.805 115.346 101.758C123.897 96.4263 132.856 93.3817 133.049 93.3158C134.776 92.7417 135.708 90.8782 135.134 89.1512C134.56 87.4242 132.692 86.4925 130.969 87.0666C130.452 87.2407 123.831 89.4806 116.297 93.5794C116.311 90.9065 116.786 87.843 118.551 85.8431C120.16 84.0172 122.73 83.2314 126.4 83.429C136.39 83.9749 142.936 83.4431 146.964 82.789C145.915 87.3019 143.506 94.1582 138.089 98.7086C133.581 102.497 127.652 104.04 120.471 103.283C118.664 103.099 117.04 104.403 116.852 106.214C116.664 108.026 117.972 109.645 119.784 109.833C121.219 109.984 122.617 110.059 123.977 110.059C131.181 110.059 137.341 107.946 142.329 103.753C153.096 94.704 154.263 79.2879 154.305 78.6385C154.385 77.4856 153.849 76.3751 152.903 75.7115C151.952 75.048 150.724 74.9351 149.67 75.4104C149.618 75.4339 143.849 77.7868 126.758 76.855C121.021 76.5445 116.598 78.1021 113.61 81.4902C109.52 86.1207 109.375 92.8076 109.916 97.4334C106.335 99.8333 102.876 102.633 100.067 105.805C97.2572 102.629 93.7985 99.8333 90.2174 97.4334C90.7585 92.7982 90.6127 86.1113 86.5233 81.4808Z" fill="#F4EFEB"/>
<path d="M197.514 91.3346L188.681 89.2876C186.742 73.0573 180.427 57.8106 170.3 44.9262L175.105 37.2229C175.914 35.9241 175.721 34.2347 174.639 33.1477L166.917 25.4255C165.834 24.3432 164.145 24.1503 162.841 24.9597L155.143 29.7642C142.254 19.6374 127.007 13.3223 110.782 11.3835L108.735 2.55077C108.391 1.05904 107.059 0.000244141 105.525 0.000244141H94.6078C93.0737 0.000244141 91.7467 1.05904 91.3985 2.55077L89.3514 11.3835C73.1212 13.3223 57.8745 19.6374 44.9901 29.7642L37.2915 24.9644C35.9927 24.1503 34.3033 24.3432 33.2163 25.4302L25.4941 33.1524C24.4118 34.2347 24.2189 35.9241 25.0283 37.2276L29.8329 44.931C19.706 57.8201 13.3909 73.0668 11.4521 89.2923L2.61937 91.3393C1.12765 91.6828 0.0688477 93.0145 0.0688477 94.5486V105.466C0.0688477 107 1.12765 108.327 2.61937 108.675L11.4521 110.722C13.3909 126.953 19.706 142.199 29.8329 155.084L25.0283 162.778C24.2189 164.076 24.4118 165.766 25.4941 166.853L33.2163 174.575C34.2986 175.657 35.988 175.85 37.2915 175.041L44.9901 170.236C57.8793 180.363 73.1259 186.678 89.3514 188.617L91.3985 197.45C91.742 198.941 93.0737 200 94.6078 200H105.525C107.059 200 108.386 198.941 108.735 197.45L110.782 188.617C127.012 186.678 142.258 180.363 155.143 170.236L162.841 175.041C164.14 175.855 165.83 175.662 166.917 174.575L174.639 166.853C175.721 165.77 175.914 164.081 175.105 162.778L170.3 155.079C180.427 142.19 186.742 126.943 188.681 110.718L197.514 108.671C199.005 108.327 200.064 106.995 200.064 105.461V94.5439C200.064 93.0098 199.005 91.6828 197.514 91.3346ZM193.476 102.845L184.907 104.831C183.523 105.151 182.502 106.322 182.37 107.734C180.836 124.313 174.389 139.875 163.726 152.735C162.818 153.827 162.714 155.38 163.467 156.58L168.126 164.048L164.107 168.067L156.639 163.408C155.435 162.655 153.886 162.759 152.795 163.667C139.934 174.33 124.377 180.777 107.793 182.311C106.377 182.443 105.21 183.464 104.885 184.848L102.904 193.417H97.2242L95.2431 184.848C94.9231 183.464 93.7514 182.443 92.3349 182.311C75.7565 180.777 60.1945 174.33 47.3336 163.667C46.2419 162.763 44.6937 162.655 43.489 163.408L36.0209 168.067L32.0022 164.048L36.6609 156.58C37.4139 155.375 37.3103 153.827 36.4021 152.735C25.7388 139.875 19.2919 124.317 17.7578 107.734C17.6261 106.318 16.6049 105.151 15.2214 104.831L6.65222 102.845V97.165L15.2214 95.1792C16.6049 94.8592 17.6261 93.6874 17.7578 92.2757C19.2919 75.6973 25.7388 60.1353 36.4021 47.2744C37.3056 46.1827 37.4139 44.6298 36.6609 43.4298L32.0022 35.9618L36.0209 31.943L43.489 36.6017C44.6937 37.3547 46.2419 37.2511 47.3336 36.3429C60.1945 25.6796 75.7518 19.2327 92.3349 17.6986C93.7514 17.5669 94.9184 16.5457 95.2384 15.1622L97.2195 6.59303H102.899L104.881 15.1622C105.2 16.5457 106.372 17.5669 107.784 17.6986C124.362 19.2327 139.924 25.6796 152.785 36.3429C153.877 37.2464 155.425 37.3547 156.63 36.6017L164.098 31.943L168.117 35.9618L163.458 43.4298C162.705 44.6345 162.809 46.1827 163.717 47.2744C174.38 60.1353 180.827 75.6926 182.361 92.2757C182.493 93.6922 183.514 94.8592 184.897 95.1792L193.467 97.165V102.845H193.476Z" fill="#F4EFEB"/>
<path d="M44.7083 137.955C44.6236 137.757 44.5201 137.564 44.4024 137.385C44.2848 137.206 44.1436 137.037 43.993 136.886C43.2307 136.119 42.0919 135.771 41.019 135.983C40.8119 136.025 40.6049 136.091 40.4072 136.171C40.2049 136.256 40.0166 136.355 39.8378 136.477C39.6543 136.595 39.4896 136.731 39.3343 136.886C39.1837 137.037 39.0473 137.206 38.9249 137.385C38.8073 137.564 38.7037 137.757 38.6237 137.955C38.539 138.152 38.4779 138.359 38.4355 138.571C38.3932 138.783 38.3696 138.999 38.3696 139.216C38.3696 140.082 38.7226 140.929 39.3343 141.54C39.4896 141.696 39.6543 141.832 39.8378 141.955C40.0166 142.072 40.2049 142.171 40.4072 142.256C40.6049 142.336 40.8119 142.402 41.019 142.444C41.2354 142.486 41.4519 142.51 41.6637 142.51C42.5342 142.51 43.3813 142.157 43.993 141.54C44.6095 140.929 44.9577 140.082 44.9577 139.216C44.9577 138.999 44.9389 138.783 44.8965 138.571C44.8542 138.359 44.7883 138.152 44.7083 137.955Z" fill="#F4EFEB"/>
<path d="M100.066 26.3711C59.4646 26.3711 26.4348 59.4009 26.4348 100.002C26.4348 110.628 28.6512 120.887 33.0229 130.482C33.7758 132.138 35.7287 132.867 37.3851 132.114C39.0416 131.362 39.771 129.409 39.018 127.752C35.0417 119.018 33.0229 109.677 33.0229 100.002C33.0229 63.0338 63.0975 32.9592 100.066 32.9592C137.035 32.9592 167.109 63.0338 167.109 100.002C167.109 136.971 137.035 167.045 100.066 167.045C81.53 167.045 64.2833 159.648 51.4977 146.222C50.2413 144.905 48.1567 144.853 46.839 146.109C45.5214 147.366 45.4697 149.451 46.7261 150.768C60.7681 165.516 79.7089 173.638 100.066 173.638C140.667 173.638 173.697 140.608 173.697 100.007C173.697 59.4056 140.667 26.3711 100.066 26.3711Z" fill="#F4EFEB"/>
</svg>
