<svg width="22" height="20" viewBox="0 0 22 20" fill="none" xmlns="http://www.w3.org/2000/svg">
<path d="M14.4641 13.6661L14.9565 13.1765L13.8131 12.0266L13.3208 12.5162L14.4641 13.6661ZM16.6101 12.9714L18.6755 14.0942L19.45 12.6696L17.3846 11.5468L16.6101 12.9714ZM19.0731 16.3257L17.5373 17.8527L18.6807 19.0027L20.2164 17.4757L19.0731 16.3257ZM16.6016 18.3444C15.0341 18.4905 10.9789 18.3603 6.58823 13.9945L5.44486 15.1445C10.2362 19.9086 14.7964 20.1412 16.7521 19.959L16.6016 18.3444ZM6.58823 13.9945C2.40303 9.83311 1.70976 6.33302 1.62346 4.81456L0.00448505 4.90657C0.113088 6.8177 0.971526 10.6966 5.44486 15.1445L6.58823 13.9945ZM8.07503 7.31328L8.38508 7.00497L7.24175 5.85508L6.93169 6.16338L8.07503 7.31328ZM8.63189 3.07509L7.26873 1.25415L5.9706 2.22596L7.33375 4.04691L8.63189 3.07509ZM2.68393 0.857814L0.987093 2.54501L2.13047 3.69492L3.8273 2.00772L2.68393 0.857814ZM7.50337 6.73833C6.93169 6.16338 6.93092 6.16415 6.93014 6.16492C6.92988 6.16518 6.9291 6.16597 6.92857 6.1665C6.92751 6.16757 6.92643 6.16865 6.92534 6.16977C6.92314 6.172 6.92087 6.17433 6.91854 6.17675C6.91386 6.18161 6.90891 6.18686 6.90369 6.19252C6.89326 6.20384 6.88181 6.21679 6.86956 6.23142C6.84505 6.26066 6.81727 6.29667 6.78809 6.33975C6.72957 6.42612 6.66581 6.54031 6.6117 6.68392C6.50129 6.97694 6.4421 7.36322 6.51631 7.84153C6.66143 8.77695 7.30564 10.0126 8.95588 11.6534L10.0992 10.5035C8.55492 8.96793 8.18703 8.03346 8.11871 7.59293C8.08617 7.38328 8.1199 7.28009 8.1292 7.25566C8.13482 7.24055 8.13752 7.239 8.1306 7.24933C8.12714 7.25437 8.12141 7.26228 8.11244 7.27292C8.10801 7.27825 8.10271 7.28429 8.09655 7.29101C8.09341 7.29437 8.09017 7.29791 8.08649 7.30162C8.08476 7.30348 8.08293 7.30537 8.08098 7.30731C8.08001 7.30829 8.07903 7.30927 8.07806 7.31026C8.07763 7.31076 8.07687 7.31152 8.07655 7.31177C8.07579 7.31252 8.07503 7.31328 7.50337 6.73833ZM8.95588 11.6534C10.6067 13.2948 11.848 13.9336 12.785 14.0774C13.2638 14.1508 13.6498 14.0922 13.9427 13.9831C14.0863 13.9296 14.2006 13.8666 14.2871 13.8086C14.3304 13.7796 14.3665 13.7521 14.3958 13.7277C14.4105 13.7156 14.4235 13.7043 14.4348 13.6939C14.4405 13.6887 14.4458 13.6839 14.4507 13.6792C14.4532 13.6768 14.4555 13.6746 14.4577 13.6724C14.4588 13.6713 14.4599 13.6702 14.461 13.6691C14.4615 13.6686 14.4624 13.6679 14.4626 13.6676C14.4633 13.6669 14.4641 13.6661 13.8924 13.0911C13.3208 12.5162 13.3215 12.5154 13.3223 12.5147C13.3225 12.5145 13.3233 12.5137 13.3238 12.5132C13.3248 12.5122 13.3257 12.5112 13.3267 12.5103C13.3288 12.5084 13.3306 12.5066 13.3324 12.5047C13.3362 12.5012 13.3398 12.4979 13.3432 12.4948C13.3499 12.4887 13.3559 12.4834 13.3613 12.4791C13.3719 12.4703 13.3798 12.4646 13.3847 12.4613C13.3947 12.4546 13.3927 12.4576 13.3767 12.4635C13.3502 12.4734 13.2441 12.5072 13.0309 12.4745C12.5841 12.406 11.6431 12.0385 10.0992 10.5035L8.95588 11.6534ZM7.26873 1.25415C6.16679 -0.217809 3.99993 -0.450723 2.68393 0.857814L3.8273 2.00772C4.40208 1.43619 5.4229 1.49436 5.9706 2.22596L7.26873 1.25415ZM1.62346 4.81456C1.6022 4.44039 1.7738 4.04955 2.13047 3.69492L0.987093 2.54501C0.406218 3.12259 -0.0504436 3.9402 0.00448505 4.90657L1.62346 4.81456ZM17.5373 17.8527C17.2403 18.1482 16.9218 18.3146 16.6016 18.3444L16.7521 19.959C17.5462 19.8849 18.1969 19.4837 18.6807 19.0027L17.5373 17.8527ZM8.38508 7.00497C9.44939 5.9467 9.52852 4.27279 8.63189 3.07509L7.33375 4.04691C7.76996 4.62958 7.7051 5.39437 7.24175 5.85508L8.38508 7.00497ZM18.6755 14.0942C19.5596 14.5749 19.6973 15.705 19.0731 16.3257L20.2164 17.4757C21.6654 16.0349 21.2186 13.631 19.45 12.6696L18.6755 14.0942ZM14.9565 13.1765C15.3717 12.7638 16.0399 12.6615 16.6101 12.9714L17.3846 11.5468C16.2132 10.91 14.7593 11.0858 13.8131 12.0266L14.9565 13.1765Z" fill="#577C8E"/>
</svg>
