<svg width="173" height="174" viewBox="0 0 173 174" fill="none" xmlns="http://www.w3.org/2000/svg">
<path d="M74.7723 70.9833C72.1879 68.057 68.3622 66.7058 63.401 66.9744C49.2255 67.7477 43.9346 65.8552 43.5643 65.7168C42.6567 65.2813 41.6229 65.379 40.7845 65.9447C39.942 66.5145 39.5066 67.5076 39.5757 68.521C39.6124 69.0867 40.6258 82.4197 49.9337 90.2421C54.2478 93.8684 59.5753 95.6957 65.8063 95.6957C66.9825 95.6957 68.1913 95.6306 69.4326 95.5004C70.9954 95.3335 72.1309 93.9335 71.9681 92.3706C71.8053 90.8037 70.4053 89.6764 68.8384 89.8351C62.6399 90.4903 57.524 89.1635 53.6291 85.9036C48.9528 81.9883 46.8527 76.034 45.937 72.1147C49.4208 72.6804 55.078 73.1363 63.7103 72.6682C66.8848 72.4932 69.107 73.181 70.503 74.7561C72.0292 76.4858 72.4402 79.1353 72.4524 81.447C65.9406 77.8981 60.2102 75.9608 59.7625 75.8143C58.2688 75.3177 56.6571 76.1236 56.1606 77.6172C55.6641 79.1109 56.4699 80.7226 57.9636 81.2191C58.0857 81.2598 65.8104 83.8686 73.2054 88.4717C73.3234 88.5571 73.4414 88.6345 73.5717 88.7036C77.4299 91.1415 81.158 94.1207 83.6365 97.5557V119.195C83.6365 120.77 84.9104 122.044 86.4855 122.044C88.0605 122.044 89.3344 120.77 89.3344 119.195V97.5557C91.8333 94.0922 95.6143 91.0886 99.5133 88.6385C99.5784 88.6019 99.6394 88.5612 99.7005 88.5205C107.095 83.9093 114.845 81.2761 115.011 81.2191C116.505 80.7226 117.311 79.1109 116.814 77.6172C116.318 76.1236 114.702 75.3177 113.213 75.8143C112.765 75.9648 107.038 77.9021 100.523 81.447C100.535 79.1353 100.946 76.4858 102.472 74.7561C103.864 73.177 106.086 72.4973 109.261 72.6682C117.901 73.1403 123.562 72.6804 127.046 72.1147C126.139 76.0178 124.055 81.9476 119.37 85.8832C115.471 89.1595 110.343 90.4944 104.133 89.8392C102.57 89.6804 101.166 90.8078 101.003 92.3747C100.84 93.9416 101.971 95.3417 103.538 95.5045C104.78 95.6347 105.988 95.6998 107.165 95.6998C113.396 95.6998 118.723 93.8724 123.037 90.2461C132.349 82.4197 133.359 69.0867 133.395 68.5251C133.464 67.5279 133 66.5674 132.182 65.9936C131.36 65.4197 130.298 65.322 129.386 65.7331C129.342 65.7535 124.352 67.7884 109.57 66.9826C104.609 66.7139 100.783 68.0611 98.1987 70.9914C94.6619 74.9962 94.5358 80.7795 95.0038 84.7803C91.9066 86.8559 88.9152 89.2775 86.4855 92.0206C84.0557 89.2734 81.0644 86.8559 77.9672 84.7803C78.4352 80.7714 78.309 74.9881 74.7723 70.9833Z" fill="#577C8E"/>
<path d="M170.765 79.5055L163.126 77.7351C161.449 63.698 155.987 50.5115 147.229 39.3681L151.384 32.7056C152.084 31.5824 151.917 30.1213 150.981 29.1811L144.303 22.5024C143.366 21.5663 141.905 21.3995 140.778 22.0995L134.12 26.2548C122.972 17.4964 109.786 12.0346 95.7527 10.3578L93.9823 2.71858C93.6852 1.42842 92.5334 0.512695 91.2066 0.512695H81.7644C80.4376 0.512695 79.2899 1.42842 78.9887 2.71858L77.2183 10.3578C63.1812 12.0346 49.9947 17.4964 38.8513 26.2548L32.193 22.1035C31.0697 21.3995 29.6086 21.5663 28.6684 22.5065L21.9897 29.1852C21.0536 30.1213 20.8868 31.5824 21.5868 32.7097L25.7422 39.3722C16.9837 50.5196 11.5219 63.7061 9.8451 77.7392L2.20589 79.5096C0.915728 79.8067 0 80.9585 0 82.2852V91.7274C0 93.0542 0.915728 94.2019 2.20589 94.5031L9.8451 96.2735C11.5219 110.311 16.9837 123.497 25.7422 134.641L21.5868 141.295C20.8868 142.418 21.0536 143.879 21.9897 144.819L28.6684 151.498C29.6045 152.434 31.0656 152.601 32.193 151.901L38.8513 147.746C49.9988 156.504 63.1853 161.966 77.2183 163.643L78.9887 171.282C79.2858 172.572 80.4376 173.488 81.7644 173.488H91.2066C92.5334 173.488 93.6811 172.572 93.9823 171.282L95.7527 163.643C109.79 161.966 122.976 156.504 134.12 147.746L140.778 151.901C141.901 152.605 143.362 152.438 144.303 151.498L150.981 144.819C151.917 143.883 152.084 142.422 151.384 141.295L147.229 134.636C155.987 123.489 161.449 110.302 163.126 96.2694L170.765 94.499C172.055 94.2019 172.971 93.0501 172.971 91.7234V82.2812C172.971 80.9544 172.055 79.8067 170.765 79.5055ZM167.273 89.4605L159.862 91.178C158.665 91.4547 157.782 92.4681 157.668 93.6891C156.341 108.027 150.766 121.487 141.543 132.61C140.758 133.554 140.668 134.897 141.319 135.935L145.349 142.394L141.873 145.869L135.414 141.84C134.372 141.189 133.033 141.279 132.089 142.064C120.966 151.286 107.511 156.862 93.1683 158.189C91.9432 158.303 90.9339 159.186 90.6531 160.383L88.9396 167.794H84.0273L82.3138 160.383C82.0371 159.186 81.0237 158.303 79.7986 158.189C65.4604 156.862 52.0012 151.286 40.8781 142.064C39.9339 141.283 38.5949 141.189 37.553 141.84L31.0941 145.869L27.6184 142.394L31.6476 135.935C32.2988 134.893 32.2092 133.554 31.4237 132.61C22.2013 121.487 16.6256 108.031 15.2988 93.6891C15.1848 92.4641 14.3016 91.4547 13.1051 91.178L5.6938 89.4605V84.5481L13.1051 82.8306C14.3016 82.5538 15.1848 81.5404 15.2988 80.3195C16.6256 65.9812 22.2013 52.522 31.4237 41.399C32.2052 40.4547 32.2988 39.1117 31.6476 38.0739L27.6184 31.6149L31.0941 28.1392L37.553 32.1684C38.5949 32.8196 39.9339 32.7301 40.8781 31.9446C52.0012 22.7222 65.4563 17.1464 79.7986 15.8196C81.0237 15.7057 82.033 14.8225 82.3098 13.6259L84.0232 6.21463H88.9356L90.649 13.6259C90.9258 14.8225 91.9392 15.7057 93.1601 15.8196C107.498 17.1464 120.958 22.7222 132.081 31.9446C133.025 32.726 134.364 32.8196 135.406 32.1684L141.865 28.1392L145.34 31.6149L141.311 38.0739C140.66 39.1157 140.75 40.4547 141.535 41.399C150.757 52.522 156.333 65.9771 157.66 80.3195C157.774 81.5445 158.657 82.5538 159.854 82.8306L167.265 84.5481V89.4605H167.273Z" fill="#577C8E"/>
<path d="M38.6075 119.826C38.5343 119.655 38.4447 119.488 38.343 119.334C38.2412 119.179 38.1191 119.032 37.9889 118.902C37.3296 118.239 36.3447 117.938 35.4167 118.121C35.2376 118.157 35.0586 118.214 34.8876 118.284C34.7126 118.357 34.5498 118.442 34.3952 118.548C34.2364 118.65 34.094 118.768 33.9597 118.902C33.8295 119.032 33.7114 119.179 33.6056 119.334C33.5039 119.488 33.4143 119.655 33.3451 119.826C33.2719 119.997 33.219 120.176 33.1823 120.359C33.1457 120.542 33.1254 120.73 33.1254 120.917C33.1254 121.666 33.4306 122.398 33.9597 122.927C34.094 123.062 34.2364 123.18 34.3952 123.286C34.5498 123.387 34.7126 123.473 34.8876 123.546C35.0586 123.615 35.2376 123.672 35.4167 123.709C35.6039 123.745 35.7912 123.766 35.9743 123.766C36.7272 123.766 37.4598 123.461 37.9889 122.927C38.5221 122.398 38.8232 121.666 38.8232 120.917C38.8232 120.73 38.807 120.542 38.7703 120.359C38.7337 120.176 38.6767 119.997 38.6075 119.826Z" fill="#577C8E"/>
<path d="M86.485 23.3202C51.3699 23.3202 22.8032 51.8869 22.8032 87.002C22.8032 96.1919 24.7201 105.064 28.5011 113.363C29.1523 114.795 30.8413 115.426 32.2739 114.775C33.7065 114.124 34.3373 112.435 33.6861 111.002C30.2471 103.449 28.5011 95.3697 28.5011 87.002C28.5011 55.0288 54.5119 29.0181 86.485 29.0181C118.458 29.0181 144.469 55.0288 144.469 87.002C144.469 118.975 118.458 144.986 86.485 144.986C70.4537 144.986 55.5375 138.588 44.4795 126.977C43.3929 125.837 41.5899 125.792 40.4503 126.879C39.3108 127.966 39.266 129.769 40.3527 130.908C52.4973 143.663 68.8786 150.688 86.485 150.688C121.6 150.688 150.167 122.121 150.167 87.0061C150.167 51.8909 121.6 23.3202 86.485 23.3202Z" fill="#577C8E"/>
</svg>
