<svg width="175" height="174" viewBox="0 0 175 174" fill="none" xmlns="http://www.w3.org/2000/svg">
<path d="M89.0527 85.7421L89.0517 85.7409C88.8626 85.5265 88.63 85.3548 88.3695 85.2372C88.1089 85.1195 87.8263 85.0587 87.5404 85.0587C87.2545 85.0587 86.9719 85.1195 86.7113 85.2372C86.451 85.3547 86.2187 85.5262 86.0297 85.7402C86.0295 85.7405 86.0293 85.7407 86.0291 85.7409L82.0059 90.2406L82.0059 90.2406L82.0049 90.2417C78.4914 94.2195 76.5522 99.3439 76.5522 104.651C76.5522 109.958 78.4911 115.082 82.0042 119.06C82.0044 119.06 82.0047 119.06 82.0049 119.061L85.9218 123.578L85.9232 123.579C86.1123 123.794 86.3449 123.965 86.6054 124.083C86.866 124.201 87.1486 124.261 87.4345 124.261C87.7204 124.261 88.003 124.201 88.2636 124.083C88.524 123.965 88.7564 123.794 88.9454 123.58C88.9455 123.579 88.9457 123.579 88.9458 123.579L92.969 119.08L92.9701 119.078C96.4813 115.096 98.4187 109.969 98.4187 104.66C98.4187 99.3512 96.4815 94.2247 92.9707 90.2425C92.9705 90.2423 92.9703 90.2421 92.9701 90.2419L89.0527 85.7421ZM85.0996 92.9005L87.4874 90.1365L89.8752 92.9005L89.8752 92.9005L89.8771 92.9026C92.7465 96.1505 94.3302 100.335 94.3302 104.669C94.3302 109.003 92.7465 113.187 89.8771 116.435L89.8752 116.437L87.4874 119.201L85.0996 116.437L85.0997 116.437L85.0978 116.435C82.2284 113.187 80.6447 109.003 80.6447 104.669C80.6447 100.335 82.2284 96.1505 85.0978 92.9026L85.0996 92.9005Z" fill="#577C8E" stroke="#577C8E" stroke-width="0.5"/>
<path d="M112.268 113.862L112.268 113.862C112.557 113.841 112.847 113.882 113.118 113.983C113.389 114.084 113.635 114.242 113.84 114.446L113.84 114.446C114.045 114.651 114.203 114.897 114.304 115.169C114.404 115.44 114.446 115.73 114.424 116.018L114.424 116.019L114.054 120.89C114.054 120.89 114.054 120.89 114.054 120.89C113.731 125.31 111.828 129.466 108.695 132.6C105.561 135.734 101.404 137.636 96.9841 137.959L92.131 138.33L92.1214 138.331H92.1119H91.9715H91.9707V138.081C91.7384 138.082 91.5081 138.038 91.2931 137.95C91.078 137.862 90.8824 137.732 90.7175 137.569L112.268 113.862ZM112.268 113.862L107.397 114.233M112.268 113.862L107.397 114.233M107.397 114.233C107.397 114.233 107.396 114.233 107.396 114.233C102.976 114.556 98.82 116.458 95.6862 119.592C92.5524 122.726 90.6503 126.882 90.327 131.302M107.397 114.233L90.327 131.302M90.327 131.302C90.327 131.302 90.327 131.302 90.327 131.302L90.327 131.302ZM107.715 118.191L110.169 118.048L110.042 120.521C109.788 123.977 108.299 127.227 105.847 129.676C103.394 132.126 100.141 133.611 96.6831 133.86L96.6807 133.86L94.1658 134.066L94.3557 131.533L94.3558 131.533C94.6023 128.073 96.0894 124.818 98.5437 122.367C100.998 119.916 104.254 118.433 107.713 118.191C107.714 118.191 107.714 118.191 107.715 118.191Z" fill="#577C8E" stroke="#577C8E" stroke-width="0.5"/>
<path d="M62.7961 113.862L62.7961 113.862L67.5783 114.233C72.0139 114.535 76.1914 116.428 79.3434 119.564C82.4957 122.7 84.4106 126.868 84.7363 131.302L85.107 136.173L85.107 136.174C85.1282 136.462 85.0869 136.752 84.9861 137.023C84.8853 137.295 84.7272 137.541 84.5227 137.746L84.5219 137.746C84.3336 137.933 84.1103 138.081 83.8648 138.181C83.6195 138.281 83.3568 138.332 83.0919 138.331M62.7961 113.862L78.0975 137.71M62.7961 113.862L62.795 113.862C62.5064 113.841 62.2168 113.882 61.9456 113.983C61.6745 114.084 61.4283 114.242 61.2237 114.447C61.0192 114.651 60.8611 114.898 60.7601 115.169C60.6592 115.44 60.6179 115.729 60.6389 116.018L60.6389 116.018L60.6389 116.019L61.0095 120.89L62.7961 113.862ZM83.0919 138.331C83.0916 138.331 83.0914 138.331 83.0912 138.331L83.0926 138.081V138.331H83.0919ZM83.0919 138.331H82.9514H82.9419L82.9324 138.33L78.0793 137.959M78.0793 137.959L78.0975 137.71M78.0793 137.959L78.0785 137.959L78.0975 137.71M78.0793 137.959C73.6591 137.636 69.5026 135.734 66.3688 132.6C63.235 129.466 61.3328 125.31 61.0096 120.89L61.0096 120.89L61.2589 120.871C61.5777 125.232 63.4541 129.332 66.5455 132.423C69.637 135.515 73.7372 137.391 78.0975 137.71M78.2939 133.931L78.2921 133.931C74.8231 133.68 71.5615 132.184 69.1069 129.72C66.6529 127.257 65.1707 123.99 64.9326 120.521L64.8062 118.055L67.3279 118.261L67.3279 118.261L67.3309 118.261C70.7911 118.503 74.0477 119.986 76.502 122.437C78.9563 124.888 80.4434 128.143 80.6899 131.603L80.69 131.604L80.8799 134.137L78.2939 133.931Z" fill="#577C8E" stroke="#577C8E" stroke-width="0.5"/>
<mask id="path-4-outside-1_48_60" maskUnits="userSpaceOnUse" x="0" y="-0.487549" width="175" height="158" fill="black">
<rect fill="white" y="-0.487549" width="175" height="158"/>
<path d="M168.68 114.694V102.515C168.666 94.1915 165.354 86.2128 159.468 80.3272C153.582 74.4415 145.604 71.1287 137.28 71.1147H89.2529V62.2895C89.2529 60.8851 89.8107 59.5382 90.8038 58.5452C91.7968 57.5522 93.1437 56.9943 94.548 56.9943H145.735C148.075 56.9943 150.32 56.0645 151.975 54.4094C153.63 52.7544 154.56 50.5096 154.56 48.169V41.1088C154.56 38.7682 153.63 36.5234 151.975 34.8684C150.32 33.2133 148.075 32.2835 145.735 32.2835H41.5963C40.192 32.2835 38.8451 31.7256 37.8521 30.7326C36.859 29.7395 36.3011 28.3927 36.3011 26.9883V19.9281C36.3011 18.5237 36.859 17.1769 37.8521 16.1838C38.8451 15.1908 40.192 14.6329 41.5963 14.6329H131.614V16.398C131.614 18.7386 132.544 20.9833 134.199 22.6384C135.854 24.2934 138.099 25.2233 140.44 25.2233H152.795C153.263 25.2233 153.712 25.0373 154.043 24.7063C154.374 24.3753 154.56 23.9263 154.56 23.4582V21.6931H168.68C169.149 21.6931 169.598 21.5072 169.929 21.1762C170.26 20.8452 170.445 20.3962 170.445 19.9281C170.445 19.46 170.26 19.011 169.929 18.68C169.598 18.349 169.149 18.163 168.68 18.163H154.56V7.57268H168.68C169.149 7.57268 169.598 7.38672 169.929 7.05571C170.26 6.7247 170.445 6.27575 170.445 5.80762C170.445 5.3395 170.26 4.89055 169.929 4.55954C169.598 4.22853 169.149 4.04257 168.68 4.04257H154.56V2.27751C154.56 1.80939 154.374 1.36044 154.043 1.02942C153.712 0.698412 153.263 0.512451 152.795 0.512451H140.44C138.099 0.512451 135.854 1.44226 134.199 3.09732C132.544 4.75238 131.614 6.99713 131.614 9.33774V11.1028H41.5963C39.2557 11.1028 37.011 12.0326 35.3559 13.6877C33.7008 15.3427 32.771 17.5875 32.771 19.9281V26.9883C32.771 29.3289 33.7008 31.5737 35.3559 33.2287C37.011 34.8838 39.2557 35.8136 41.5963 35.8136H145.735C147.139 35.8136 148.486 36.3715 149.479 37.3645C150.472 38.3576 151.03 39.7044 151.03 41.1088V48.169C151.03 49.5734 150.472 50.9202 149.479 51.9132C148.486 52.9063 147.139 53.4642 145.735 53.4642H94.548C92.2074 53.4642 89.9627 54.394 88.3076 56.049C86.6525 57.7041 85.7227 59.9488 85.7227 62.2895V71.1147H74.3911C66.061 71.1287 58.075 74.4391 52.1781 80.3228C46.2812 86.2065 42.9527 94.185 42.9201 102.515V107.722H23.7339C17.7137 107.722 11.9392 110.11 7.67731 114.362C3.41539 118.614 1.01402 124.383 1 130.403V154.796C1 155.264 1.18596 155.713 1.51697 156.044C1.84799 156.375 2.29693 156.561 2.76506 156.561H15.4382C15.9063 156.561 16.3552 156.375 16.6863 156.044C17.0173 155.713 17.2032 155.264 17.2032 154.796C17.3614 149.347 19.6372 144.174 23.5474 140.376C27.4576 136.578 32.6943 134.453 38.1456 134.453C43.597 134.453 48.8336 136.578 52.7438 140.376C56.654 144.174 58.9298 149.347 59.088 154.796C59.088 155.264 59.274 155.713 59.605 156.044C59.936 156.375 60.385 156.561 60.8531 156.561H112.428C112.896 156.561 113.345 156.375 113.676 156.044C114.007 155.713 114.193 155.264 114.193 154.796C114.415 149.402 116.714 144.303 120.609 140.565C124.503 136.827 129.693 134.739 135.091 134.739C140.49 134.739 145.679 136.827 149.574 140.565C153.469 144.303 155.768 149.402 155.99 154.796C155.99 155.264 156.176 155.713 156.507 156.044C156.838 156.375 157.287 156.561 157.755 156.561H172.211C172.679 156.561 173.128 156.375 173.459 156.044C173.79 155.713 173.976 155.264 173.976 154.796V119.972C173.971 118.57 173.411 117.228 172.418 116.239C171.426 115.249 170.082 114.694 168.68 114.694ZM135.144 9.33774C135.144 7.93337 135.702 6.58652 136.695 5.59348C137.688 4.60045 139.035 4.04257 140.44 4.04257H151.03V21.6931H140.44C139.035 21.6931 137.688 21.1353 136.695 20.1422C135.702 19.1492 135.144 17.8023 135.144 16.398V9.33774ZM46.4502 102.515C46.4588 96.8415 48.1944 91.305 51.4261 86.6418C54.6579 81.9787 59.2327 78.4098 64.5421 76.4099V105.833C64.5421 106.302 64.3561 106.75 64.0251 107.082C63.6941 107.413 63.2451 107.598 62.777 107.598H46.4502V102.515ZM170.445 153.031H159.396C158.749 147.037 155.91 141.493 151.423 137.465C146.937 133.437 141.121 131.209 135.091 131.209C129.062 131.209 123.246 133.437 118.759 137.465C114.273 141.493 111.434 147.037 110.787 153.031H62.5475C62.0792 146.878 59.3042 141.128 54.7779 136.933C50.2516 132.738 44.308 130.408 38.1368 130.408C31.9656 130.408 26.022 132.738 21.4957 136.933C16.9694 141.128 14.1944 146.878 13.7261 153.031H4.53011V130.403C4.54413 125.319 6.57357 120.448 10.1735 116.858C13.7734 113.268 18.6499 111.252 23.7339 111.252H44.6852C44.8727 111.253 45.0587 111.217 45.2323 111.146H62.777C64.1814 111.146 65.5282 110.588 66.5213 109.595C67.5143 108.602 68.0722 107.255 68.0722 105.851V75.3862C70.1428 74.8962 72.2632 74.6475 74.3911 74.6449H137.28C144.667 74.6589 151.748 77.5997 156.972 82.8233C162.196 88.047 165.136 95.1278 165.15 102.515V114.676C165.15 115.613 165.522 116.511 166.184 117.173C166.846 117.835 167.744 118.206 168.68 118.206C169.149 118.206 169.598 118.392 169.929 118.723C170.26 119.054 170.445 119.503 170.445 119.972V153.031Z"/>
</mask>
<path d="M168.68 114.694V102.515C168.666 94.1915 165.354 86.2128 159.468 80.3272C153.582 74.4415 145.604 71.1287 137.28 71.1147H89.2529V62.2895C89.2529 60.8851 89.8107 59.5382 90.8038 58.5452C91.7968 57.5522 93.1437 56.9943 94.548 56.9943H145.735C148.075 56.9943 150.32 56.0645 151.975 54.4094C153.63 52.7544 154.56 50.5096 154.56 48.169V41.1088C154.56 38.7682 153.63 36.5234 151.975 34.8684C150.32 33.2133 148.075 32.2835 145.735 32.2835H41.5963C40.192 32.2835 38.8451 31.7256 37.8521 30.7326C36.859 29.7395 36.3011 28.3927 36.3011 26.9883V19.9281C36.3011 18.5237 36.859 17.1769 37.8521 16.1838C38.8451 15.1908 40.192 14.6329 41.5963 14.6329H131.614V16.398C131.614 18.7386 132.544 20.9833 134.199 22.6384C135.854 24.2934 138.099 25.2233 140.44 25.2233H152.795C153.263 25.2233 153.712 25.0373 154.043 24.7063C154.374 24.3753 154.56 23.9263 154.56 23.4582V21.6931H168.68C169.149 21.6931 169.598 21.5072 169.929 21.1762C170.26 20.8452 170.445 20.3962 170.445 19.9281C170.445 19.46 170.26 19.011 169.929 18.68C169.598 18.349 169.149 18.163 168.68 18.163H154.56V7.57268H168.68C169.149 7.57268 169.598 7.38672 169.929 7.05571C170.26 6.7247 170.445 6.27575 170.445 5.80762C170.445 5.3395 170.26 4.89055 169.929 4.55954C169.598 4.22853 169.149 4.04257 168.68 4.04257H154.56V2.27751C154.56 1.80939 154.374 1.36044 154.043 1.02942C153.712 0.698412 153.263 0.512451 152.795 0.512451H140.44C138.099 0.512451 135.854 1.44226 134.199 3.09732C132.544 4.75238 131.614 6.99713 131.614 9.33774V11.1028H41.5963C39.2557 11.1028 37.011 12.0326 35.3559 13.6877C33.7008 15.3427 32.771 17.5875 32.771 19.9281V26.9883C32.771 29.3289 33.7008 31.5737 35.3559 33.2287C37.011 34.8838 39.2557 35.8136 41.5963 35.8136H145.735C147.139 35.8136 148.486 36.3715 149.479 37.3645C150.472 38.3576 151.03 39.7044 151.03 41.1088V48.169C151.03 49.5734 150.472 50.9202 149.479 51.9132C148.486 52.9063 147.139 53.4642 145.735 53.4642H94.548C92.2074 53.4642 89.9627 54.394 88.3076 56.049C86.6525 57.7041 85.7227 59.9488 85.7227 62.2895V71.1147H74.3911C66.061 71.1287 58.075 74.4391 52.1781 80.3228C46.2812 86.2065 42.9527 94.185 42.9201 102.515V107.722H23.7339C17.7137 107.722 11.9392 110.11 7.67731 114.362C3.41539 118.614 1.01402 124.383 1 130.403V154.796C1 155.264 1.18596 155.713 1.51697 156.044C1.84799 156.375 2.29693 156.561 2.76506 156.561H15.4382C15.9063 156.561 16.3552 156.375 16.6863 156.044C17.0173 155.713 17.2032 155.264 17.2032 154.796C17.3614 149.347 19.6372 144.174 23.5474 140.376C27.4576 136.578 32.6943 134.453 38.1456 134.453C43.597 134.453 48.8336 136.578 52.7438 140.376C56.654 144.174 58.9298 149.347 59.088 154.796C59.088 155.264 59.274 155.713 59.605 156.044C59.936 156.375 60.385 156.561 60.8531 156.561H112.428C112.896 156.561 113.345 156.375 113.676 156.044C114.007 155.713 114.193 155.264 114.193 154.796C114.415 149.402 116.714 144.303 120.609 140.565C124.503 136.827 129.693 134.739 135.091 134.739C140.49 134.739 145.679 136.827 149.574 140.565C153.469 144.303 155.768 149.402 155.99 154.796C155.99 155.264 156.176 155.713 156.507 156.044C156.838 156.375 157.287 156.561 157.755 156.561H172.211C172.679 156.561 173.128 156.375 173.459 156.044C173.79 155.713 173.976 155.264 173.976 154.796V119.972C173.971 118.57 173.411 117.228 172.418 116.239C171.426 115.249 170.082 114.694 168.68 114.694ZM135.144 9.33774C135.144 7.93337 135.702 6.58652 136.695 5.59348C137.688 4.60045 139.035 4.04257 140.44 4.04257H151.03V21.6931H140.44C139.035 21.6931 137.688 21.1353 136.695 20.1422C135.702 19.1492 135.144 17.8023 135.144 16.398V9.33774ZM46.4502 102.515C46.4588 96.8415 48.1944 91.305 51.4261 86.6418C54.6579 81.9787 59.2327 78.4098 64.5421 76.4099V105.833C64.5421 106.302 64.3561 106.75 64.0251 107.082C63.6941 107.413 63.2451 107.598 62.777 107.598H46.4502V102.515ZM170.445 153.031H159.396C158.749 147.037 155.91 141.493 151.423 137.465C146.937 133.437 141.121 131.209 135.091 131.209C129.062 131.209 123.246 133.437 118.759 137.465C114.273 141.493 111.434 147.037 110.787 153.031H62.5475C62.0792 146.878 59.3042 141.128 54.7779 136.933C50.2516 132.738 44.308 130.408 38.1368 130.408C31.9656 130.408 26.022 132.738 21.4957 136.933C16.9694 141.128 14.1944 146.878 13.7261 153.031H4.53011V130.403C4.54413 125.319 6.57357 120.448 10.1735 116.858C13.7734 113.268 18.6499 111.252 23.7339 111.252H44.6852C44.8727 111.253 45.0587 111.217 45.2323 111.146H62.777C64.1814 111.146 65.5282 110.588 66.5213 109.595C67.5143 108.602 68.0722 107.255 68.0722 105.851V75.3862C70.1428 74.8962 72.2632 74.6475 74.3911 74.6449H137.28C144.667 74.6589 151.748 77.5997 156.972 82.8233C162.196 88.047 165.136 95.1278 165.15 102.515V114.676C165.15 115.613 165.522 116.511 166.184 117.173C166.846 117.835 167.744 118.206 168.68 118.206C169.149 118.206 169.598 118.392 169.929 118.723C170.26 119.054 170.445 119.503 170.445 119.972V153.031Z" fill="#577C8E"/>
<path d="M168.68 114.694V102.515C168.666 94.1915 165.354 86.2128 159.468 80.3272C153.582 74.4415 145.604 71.1287 137.28 71.1147H89.2529V62.2895C89.2529 60.8851 89.8107 59.5382 90.8038 58.5452C91.7968 57.5522 93.1437 56.9943 94.548 56.9943H145.735C148.075 56.9943 150.32 56.0645 151.975 54.4094C153.63 52.7544 154.56 50.5096 154.56 48.169V41.1088C154.56 38.7682 153.63 36.5234 151.975 34.8684C150.32 33.2133 148.075 32.2835 145.735 32.2835H41.5963C40.192 32.2835 38.8451 31.7256 37.8521 30.7326C36.859 29.7395 36.3011 28.3927 36.3011 26.9883V19.9281C36.3011 18.5237 36.859 17.1769 37.8521 16.1838C38.8451 15.1908 40.192 14.6329 41.5963 14.6329H131.614V16.398C131.614 18.7386 132.544 20.9833 134.199 22.6384C135.854 24.2934 138.099 25.2233 140.44 25.2233H152.795C153.263 25.2233 153.712 25.0373 154.043 24.7063C154.374 24.3753 154.56 23.9263 154.56 23.4582V21.6931H168.68C169.149 21.6931 169.598 21.5072 169.929 21.1762C170.26 20.8452 170.445 20.3962 170.445 19.9281C170.445 19.46 170.26 19.011 169.929 18.68C169.598 18.349 169.149 18.163 168.68 18.163H154.56V7.57268H168.68C169.149 7.57268 169.598 7.38672 169.929 7.05571C170.26 6.7247 170.445 6.27575 170.445 5.80762C170.445 5.3395 170.26 4.89055 169.929 4.55954C169.598 4.22853 169.149 4.04257 168.68 4.04257H154.56V2.27751C154.56 1.80939 154.374 1.36044 154.043 1.02942C153.712 0.698412 153.263 0.512451 152.795 0.512451H140.44C138.099 0.512451 135.854 1.44226 134.199 3.09732C132.544 4.75238 131.614 6.99713 131.614 9.33774V11.1028H41.5963C39.2557 11.1028 37.011 12.0326 35.3559 13.6877C33.7008 15.3427 32.771 17.5875 32.771 19.9281V26.9883C32.771 29.3289 33.7008 31.5737 35.3559 33.2287C37.011 34.8838 39.2557 35.8136 41.5963 35.8136H145.735C147.139 35.8136 148.486 36.3715 149.479 37.3645C150.472 38.3576 151.03 39.7044 151.03 41.1088V48.169C151.03 49.5734 150.472 50.9202 149.479 51.9132C148.486 52.9063 147.139 53.4642 145.735 53.4642H94.548C92.2074 53.4642 89.9627 54.394 88.3076 56.049C86.6525 57.7041 85.7227 59.9488 85.7227 62.2895V71.1147H74.3911C66.061 71.1287 58.075 74.4391 52.1781 80.3228C46.2812 86.2065 42.9527 94.185 42.9201 102.515V107.722H23.7339C17.7137 107.722 11.9392 110.11 7.67731 114.362C3.41539 118.614 1.01402 124.383 1 130.403V154.796C1 155.264 1.18596 155.713 1.51697 156.044C1.84799 156.375 2.29693 156.561 2.76506 156.561H15.4382C15.9063 156.561 16.3552 156.375 16.6863 156.044C17.0173 155.713 17.2032 155.264 17.2032 154.796C17.3614 149.347 19.6372 144.174 23.5474 140.376C27.4576 136.578 32.6943 134.453 38.1456 134.453C43.597 134.453 48.8336 136.578 52.7438 140.376C56.654 144.174 58.9298 149.347 59.088 154.796C59.088 155.264 59.274 155.713 59.605 156.044C59.936 156.375 60.385 156.561 60.8531 156.561H112.428C112.896 156.561 113.345 156.375 113.676 156.044C114.007 155.713 114.193 155.264 114.193 154.796C114.415 149.402 116.714 144.303 120.609 140.565C124.503 136.827 129.693 134.739 135.091 134.739C140.49 134.739 145.679 136.827 149.574 140.565C153.469 144.303 155.768 149.402 155.99 154.796C155.99 155.264 156.176 155.713 156.507 156.044C156.838 156.375 157.287 156.561 157.755 156.561H172.211C172.679 156.561 173.128 156.375 173.459 156.044C173.79 155.713 173.976 155.264 173.976 154.796V119.972C173.971 118.57 173.411 117.228 172.418 116.239C171.426 115.249 170.082 114.694 168.68 114.694ZM135.144 9.33774C135.144 7.93337 135.702 6.58652 136.695 5.59348C137.688 4.60045 139.035 4.04257 140.44 4.04257H151.03V21.6931H140.44C139.035 21.6931 137.688 21.1353 136.695 20.1422C135.702 19.1492 135.144 17.8023 135.144 16.398V9.33774ZM46.4502 102.515C46.4588 96.8415 48.1944 91.305 51.4261 86.6418C54.6579 81.9787 59.2327 78.4098 64.5421 76.4099V105.833C64.5421 106.302 64.3561 106.75 64.0251 107.082C63.6941 107.413 63.2451 107.598 62.777 107.598H46.4502V102.515ZM170.445 153.031H159.396C158.749 147.037 155.91 141.493 151.423 137.465C146.937 133.437 141.121 131.209 135.091 131.209C129.062 131.209 123.246 133.437 118.759 137.465C114.273 141.493 111.434 147.037 110.787 153.031H62.5475C62.0792 146.878 59.3042 141.128 54.7779 136.933C50.2516 132.738 44.308 130.408 38.1368 130.408C31.9656 130.408 26.022 132.738 21.4957 136.933C16.9694 141.128 14.1944 146.878 13.7261 153.031H4.53011V130.403C4.54413 125.319 6.57357 120.448 10.1735 116.858C13.7734 113.268 18.6499 111.252 23.7339 111.252H44.6852C44.8727 111.253 45.0587 111.217 45.2323 111.146H62.777C64.1814 111.146 65.5282 110.588 66.5213 109.595C67.5143 108.602 68.0722 107.255 68.0722 105.851V75.3862C70.1428 74.8962 72.2632 74.6475 74.3911 74.6449H137.28C144.667 74.6589 151.748 77.5997 156.972 82.8233C162.196 88.047 165.136 95.1278 165.15 102.515V114.676C165.15 115.613 165.522 116.511 166.184 117.173C166.846 117.835 167.744 118.206 168.68 118.206C169.149 118.206 169.598 118.392 169.929 118.723C170.26 119.054 170.445 119.503 170.445 119.972V153.031Z" stroke="#577C8E" mask="url(#path-4-outside-1_48_60)"/>
<path d="M38.0665 169.708L38.0641 169.708C35.2871 169.736 32.5645 168.937 30.2422 167.415C27.9198 165.892 26.1023 163.713 25.0205 161.156C23.9387 158.598 23.6413 155.776 24.1662 153.049C24.6911 150.322 26.0145 147.812 27.9684 145.839C29.9223 143.866 32.4186 142.517 35.1404 141.965C37.8621 141.413 40.6864 141.683 43.2548 142.739C45.8232 143.795 48.0198 145.591 49.5656 147.898C51.1115 150.205 51.9369 152.92 51.937 155.697L51.937 155.699C51.9553 157.532 51.6101 159.351 50.9213 161.05C50.2324 162.749 49.2136 164.294 47.9238 165.597C46.634 166.9 45.0987 167.934 43.4068 168.639C41.7148 169.345 39.8998 169.708 38.0665 169.708ZM38.0681 137.655C34.494 137.627 30.992 138.661 28.0063 140.626C25.0206 142.591 22.6859 145.398 21.2983 148.693C19.9108 151.987 19.533 155.619 20.2129 159.128C20.8928 162.637 22.5997 165.865 25.1171 168.403C27.6345 170.94 30.8489 172.673 34.3526 173.381C37.8562 174.088 41.4911 173.74 44.7961 172.378C48.1012 171.017 50.9274 168.705 52.9163 165.735C54.905 162.765 55.9669 159.272 55.9671 155.697C55.9814 150.933 54.1047 146.357 50.749 142.974C47.3933 139.592 42.8327 137.679 38.0681 137.655ZM52.187 155.697C52.2057 157.563 51.8542 159.414 51.1529 161.144C50.4517 162.873 49.4145 164.447 48.1015 165.773C46.7884 167.099 45.2255 168.152 43.503 168.87C41.7806 169.589 39.9328 169.958 38.0665 169.958L52.187 155.697Z" fill="#577C8E" stroke="#577C8E" stroke-width="0.5"/>
<path d="M135.144 169.708L135.142 169.708C132.365 169.736 129.642 168.937 127.32 167.415C124.997 165.892 123.18 163.713 122.098 161.156C121.016 158.598 120.719 155.776 121.244 153.049C121.769 150.322 123.092 147.812 125.046 145.839C127 143.866 129.496 142.517 132.218 141.965C134.94 141.413 137.764 141.683 140.332 142.739C142.901 143.795 145.097 145.591 146.643 147.898C148.189 150.205 149.014 152.92 149.015 155.697L149.015 155.699C149.033 157.532 148.688 159.351 147.999 161.05C147.31 162.749 146.291 164.294 145.001 165.597C143.712 166.9 142.176 167.934 140.484 168.639C138.792 169.345 136.977 169.708 135.144 169.708ZM135.146 137.655C131.572 137.627 128.07 138.661 125.084 140.626C122.098 142.591 119.764 145.398 118.376 148.693C116.988 151.987 116.611 155.619 117.291 159.128C117.97 162.637 119.677 165.865 122.195 168.403C124.712 170.94 127.927 172.673 131.43 173.381C134.934 174.088 138.569 173.74 141.874 172.378C145.179 171.017 148.005 168.705 149.994 165.735C151.983 162.765 153.044 159.272 153.045 155.697C153.059 150.933 151.182 146.357 147.827 142.974C144.471 139.592 139.91 137.679 135.146 137.655ZM149.265 155.697C149.283 157.563 148.932 159.414 148.231 161.144C147.529 162.873 146.492 164.447 145.179 165.773C143.866 167.099 142.303 168.152 140.581 168.87C138.858 169.589 137.01 169.958 135.144 169.958L149.265 155.697Z" fill="#577C8E" stroke="#577C8E" stroke-width="0.5"/>
</svg>
