<svg width="202" height="202" viewBox="0 0 202 202" fill="none" xmlns="http://www.w3.org/2000/svg">
<path d="M102.591 99.5712L102.59 99.57C102.375 99.3263 102.111 99.131 101.815 98.9973C101.518 98.8636 101.197 98.7944 100.872 98.7944C100.547 98.7944 100.226 98.8636 99.9296 98.9973C99.6337 99.1309 99.3695 99.3259 99.1546 99.5693C99.1544 99.5695 99.1542 99.5698 99.154 99.57L94.5021 104.773L94.5021 104.773L94.5011 104.774C90.4449 109.366 88.2063 115.282 88.2063 121.409C88.2063 127.536 90.4446 133.451 94.5004 138.043C94.5006 138.043 94.5008 138.044 94.5011 138.044L99.0302 143.267L99.0316 143.268C99.2465 143.512 99.5109 143.707 99.8072 143.841C100.103 143.975 100.425 144.044 100.75 144.044C101.075 144.044 101.396 143.975 101.692 143.841C101.988 143.707 102.252 143.512 102.467 143.269C102.467 143.269 102.468 143.268 102.468 143.268L107.12 138.065L107.121 138.064C111.174 133.467 113.411 127.548 113.411 121.419C113.411 115.29 111.175 109.372 107.121 104.775C107.121 104.775 107.121 104.774 107.121 104.774L102.591 99.5712ZM100.811 138.292L98.0205 135.062L98.0187 135.06C94.6946 131.297 92.86 126.45 92.86 121.429C92.86 116.409 94.6946 111.561 98.0187 107.799L98.0205 107.797L100.811 104.567L103.601 107.797L103.601 107.797L103.603 107.799C106.927 111.561 108.762 116.409 108.762 121.429C108.762 126.45 106.927 131.297 103.603 135.06L103.601 135.062L100.811 138.292Z" fill="#F4EFEB" stroke="#F4EFEB" stroke-width="0.5"/>
<path d="M129.465 132.098L129.466 132.098C129.794 132.074 130.124 132.121 130.432 132.235C130.74 132.35 131.02 132.529 131.253 132.762L131.253 132.762C131.486 132.995 131.665 133.275 131.78 133.583C131.895 133.891 131.941 134.221 131.917 134.549L131.917 134.55L131.489 140.182C131.489 140.182 131.489 140.182 131.489 140.182C131.116 145.283 128.92 150.08 125.304 153.697C121.687 157.314 116.89 159.509 111.788 159.882L106.177 160.311L106.167 160.311H106.158H105.995H105.995V160.061C105.726 160.063 105.46 160.011 105.211 159.91C104.962 159.808 104.736 159.659 104.546 159.47L129.465 132.098ZM129.465 132.098L123.833 132.526L129.465 132.098ZM124.196 137.025L127.078 136.858L126.929 139.76C126.634 143.766 124.908 147.533 122.066 150.371C119.223 153.21 115.453 154.932 111.446 155.22L111.444 155.22L108.49 155.462L108.713 152.488L108.713 152.487C108.999 148.477 110.722 144.705 113.567 141.865C116.411 139.024 120.185 137.306 124.194 137.025C124.195 137.025 124.195 137.025 124.196 137.025Z" fill="#F4EFEB" stroke="#F4EFEB" stroke-width="0.5"/>
<path d="M72.2589 132.098L72.2589 132.098L77.7884 132.526C82.9077 132.876 87.7291 135.06 91.367 138.679C95.0051 142.298 97.2151 147.109 97.5911 152.227L98.0196 157.859L98.0196 157.859C98.0437 158.187 97.9968 158.517 97.8822 158.825C97.7675 159.133 97.5878 159.414 97.3553 159.646L97.3545 159.647C97.1405 159.859 96.8866 160.027 96.6075 160.141C96.3286 160.255 96.03 160.313 95.7287 160.311M72.2589 132.098L89.9349 159.882L89.954 159.633L89.9357 159.882L95.5472 160.311L95.5567 160.311H95.5662H95.7287M72.2589 132.098L72.2578 132.098C71.9297 132.074 71.6004 132.121 71.2922 132.235C70.984 132.35 70.7041 132.53 70.4715 132.763C70.2389 132.995 70.0592 133.275 69.9445 133.583C69.8297 133.891 69.7827 134.221 69.8066 134.549L69.8066 134.55L70.2352 140.182M72.2589 132.098L70.2352 140.182M95.7287 160.311C95.7285 160.311 95.7283 160.311 95.728 160.311L95.7295 160.061V160.311H95.7287ZM70.2352 140.182C70.2352 140.182 70.2352 140.182 70.2352 140.182L70.2352 140.182ZM90.1779 155.302L90.1761 155.302C86.1558 155.011 82.3757 153.278 79.5311 150.422C76.6869 147.567 74.969 143.781 74.6933 139.761L74.5447 136.864L77.505 137.106L77.505 137.106L77.5079 137.107C81.5181 137.387 85.2923 139.106 88.1368 141.946C90.9812 144.787 92.7047 148.559 92.9903 152.569L92.9904 152.57L93.2134 155.544L90.1779 155.302Z" fill="#F4EFEB" stroke="#F4EFEB" stroke-width="0.5"/>
<mask id="path-4-outside-1_48_344" maskUnits="userSpaceOnUse" x="-0.188965" y="0" width="202" height="182" fill="black">
<rect fill="white" x="-0.188965" width="202" height="182"/>
<path d="M194.689 133.021V118.939C194.673 109.315 190.843 100.09 184.037 93.2846C177.232 86.4794 168.007 82.6491 158.383 82.6329H102.852V72.4288C102.852 70.805 103.497 69.2477 104.645 68.0996C105.794 66.9514 107.351 66.3063 108.975 66.3063H168.158C170.865 66.3063 173.46 65.2313 175.374 63.3176C177.288 61.404 178.363 58.8085 178.363 56.1022V47.9389C178.363 45.2326 177.288 42.6372 175.374 40.7235C173.46 38.8099 170.865 37.7348 168.158 37.7348H47.75C46.1262 37.7348 44.5689 37.0898 43.4207 35.9416C42.2725 34.7934 41.6275 33.2361 41.6275 31.6123V23.4491C41.6275 21.8253 42.2725 20.268 43.4207 19.1198C44.5689 17.9716 46.1262 17.3266 47.75 17.3266H151.832V19.3674C151.832 22.0737 152.907 24.6692 154.821 26.5828C156.734 28.4964 159.33 29.5715 162.036 29.5715H176.322C176.863 29.5715 177.382 29.3565 177.765 28.9738C178.148 28.591 178.363 28.072 178.363 27.5307V25.4899H194.689C195.23 25.4899 195.75 25.2749 196.132 24.8921C196.515 24.5094 196.73 23.9903 196.73 23.4491C196.73 22.9078 196.515 22.3887 196.132 22.006C195.75 21.6232 195.23 21.4082 194.689 21.4082H178.363V9.16329H194.689C195.23 9.16329 195.75 8.94828 196.132 8.56555C196.515 8.18282 196.73 7.66373 196.73 7.12247C196.73 6.58121 196.515 6.06212 196.132 5.67939C195.75 5.29666 195.23 5.08165 194.689 5.08165H178.363V3.04082C178.363 2.49956 178.148 1.98047 177.765 1.59774C177.382 1.21502 176.863 1 176.322 1H162.036C159.33 1 156.734 2.07507 154.821 3.98872C152.907 5.90236 151.832 8.49781 151.832 11.2041V13.2449H47.75C45.0437 13.2449 42.4482 14.32 40.5346 16.2337C38.6209 18.1473 37.5458 20.7428 37.5458 23.4491V31.6123C37.5458 34.3186 38.6209 36.9141 40.5346 38.8277C42.4482 40.7414 45.0437 41.8165 47.75 41.8165H168.158C169.782 41.8165 171.34 42.4615 172.488 43.6097C173.636 44.7579 174.281 46.3151 174.281 47.9389V56.1022C174.281 57.726 173.636 59.2833 172.488 60.4314C171.34 61.5796 169.782 62.2247 168.158 62.2247H108.975C106.268 62.2247 103.673 63.2998 101.759 65.2134C99.8456 67.127 98.7705 69.7225 98.7705 72.4288V82.6329H85.6684C76.0369 82.649 66.8032 86.4767 59.9849 93.2796C53.1667 100.083 49.3183 109.308 49.2806 118.939V124.96H27.0968C20.136 124.96 13.4594 127.721 8.53158 132.637C3.60379 137.553 0.827248 144.223 0.811035 151.184V179.388C0.811035 179.93 1.02605 180.449 1.40878 180.831C1.79151 181.214 2.3106 181.429 2.85186 181.429H17.505C18.0462 181.429 18.5653 181.214 18.948 180.831C19.3308 180.449 19.5458 179.93 19.5458 179.388C19.7287 173.088 22.3601 167.107 26.8812 162.715C31.4023 158.323 37.4571 155.867 43.7601 155.867C50.0632 155.867 56.118 158.323 60.6391 162.715C65.1602 167.107 67.7916 173.088 67.9745 179.388C67.9745 179.93 68.1895 180.449 68.5723 180.831C68.955 181.214 69.4741 181.429 70.0153 181.429H129.648C130.189 181.429 130.709 181.214 131.091 180.831C131.474 180.449 131.689 179.93 131.689 179.388C131.945 173.152 134.603 167.256 139.107 162.933C143.61 158.611 149.61 156.198 155.852 156.198C162.094 156.198 168.095 158.611 172.598 162.933C177.101 167.256 179.759 173.152 180.016 179.388C180.016 179.93 180.231 180.449 180.613 180.831C180.996 181.214 181.515 181.429 182.057 181.429H198.771C199.312 181.429 199.831 181.214 200.214 180.831C200.597 180.449 200.812 179.93 200.812 179.388V139.123C200.806 137.503 200.159 135.951 199.011 134.807C197.864 133.663 196.309 133.021 194.689 133.021ZM155.914 11.2041C155.914 9.58033 156.559 8.02306 157.707 6.87487C158.855 5.72669 160.412 5.08165 162.036 5.08165H174.281V25.4899H162.036C160.412 25.4899 158.855 24.8448 157.707 23.6966C156.559 22.5485 155.914 20.9912 155.914 19.3674V11.2041ZM53.3622 118.939C53.3721 112.379 55.3789 105.978 59.1155 100.586C62.8522 95.1942 68.1417 91.0677 74.2807 88.7554V122.776C74.2807 123.317 74.0656 123.836 73.6829 124.219C73.3002 124.602 72.7811 124.817 72.2398 124.817H53.3622V118.939ZM196.73 177.348H183.954C183.206 170.417 179.923 164.007 174.736 159.349C169.549 154.692 162.824 152.116 155.852 152.116C148.881 152.116 142.156 154.692 136.969 159.349C131.782 164.007 128.498 170.417 127.75 177.348H71.9745C71.433 170.233 68.2244 163.585 62.991 158.735C57.7575 153.884 50.8854 151.189 43.7499 151.189C36.6145 151.189 29.7424 153.884 24.5089 158.735C19.2755 163.585 16.0669 170.233 15.5254 177.348H4.89268V151.184C4.90889 145.306 7.2554 139.674 11.4177 135.523C15.5801 131.372 21.2185 129.041 27.0968 129.041H51.3214C51.5383 129.042 51.7532 129.001 51.9541 128.919H72.2398C73.8636 128.919 75.4209 128.274 76.5691 127.126C77.7173 125.977 78.3623 124.42 78.3623 122.796V87.5717C80.7565 87.0052 83.2082 86.7176 85.6684 86.7146H158.383C166.924 86.7307 175.112 90.131 181.151 96.1708C187.191 102.211 190.591 110.398 190.608 118.939V133C190.608 134.083 191.038 135.121 191.803 135.887C192.568 136.652 193.607 137.082 194.689 137.082C195.23 137.082 195.75 137.297 196.132 137.68C196.515 138.063 196.73 138.582 196.73 139.123V177.348Z"/>
</mask>
<path d="M194.689 133.021V118.939C194.673 109.315 190.843 100.09 184.037 93.2846C177.232 86.4794 168.007 82.6491 158.383 82.6329H102.852V72.4288C102.852 70.805 103.497 69.2477 104.645 68.0996C105.794 66.9514 107.351 66.3063 108.975 66.3063H168.158C170.865 66.3063 173.46 65.2313 175.374 63.3176C177.288 61.404 178.363 58.8085 178.363 56.1022V47.9389C178.363 45.2326 177.288 42.6372 175.374 40.7235C173.46 38.8099 170.865 37.7348 168.158 37.7348H47.75C46.1262 37.7348 44.5689 37.0898 43.4207 35.9416C42.2725 34.7934 41.6275 33.2361 41.6275 31.6123V23.4491C41.6275 21.8253 42.2725 20.268 43.4207 19.1198C44.5689 17.9716 46.1262 17.3266 47.75 17.3266H151.832V19.3674C151.832 22.0737 152.907 24.6692 154.821 26.5828C156.734 28.4964 159.33 29.5715 162.036 29.5715H176.322C176.863 29.5715 177.382 29.3565 177.765 28.9738C178.148 28.591 178.363 28.072 178.363 27.5307V25.4899H194.689C195.23 25.4899 195.75 25.2749 196.132 24.8921C196.515 24.5094 196.73 23.9903 196.73 23.4491C196.73 22.9078 196.515 22.3887 196.132 22.006C195.75 21.6232 195.23 21.4082 194.689 21.4082H178.363V9.16329H194.689C195.23 9.16329 195.75 8.94828 196.132 8.56555C196.515 8.18282 196.73 7.66373 196.73 7.12247C196.73 6.58121 196.515 6.06212 196.132 5.67939C195.75 5.29666 195.23 5.08165 194.689 5.08165H178.363V3.04082C178.363 2.49956 178.148 1.98047 177.765 1.59774C177.382 1.21502 176.863 1 176.322 1H162.036C159.33 1 156.734 2.07507 154.821 3.98872C152.907 5.90236 151.832 8.49781 151.832 11.2041V13.2449H47.75C45.0437 13.2449 42.4482 14.32 40.5346 16.2337C38.6209 18.1473 37.5458 20.7428 37.5458 23.4491V31.6123C37.5458 34.3186 38.6209 36.9141 40.5346 38.8277C42.4482 40.7414 45.0437 41.8165 47.75 41.8165H168.158C169.782 41.8165 171.34 42.4615 172.488 43.6097C173.636 44.7579 174.281 46.3151 174.281 47.9389V56.1022C174.281 57.726 173.636 59.2833 172.488 60.4314C171.34 61.5796 169.782 62.2247 168.158 62.2247H108.975C106.268 62.2247 103.673 63.2998 101.759 65.2134C99.8456 67.127 98.7705 69.7225 98.7705 72.4288V82.6329H85.6684C76.0369 82.649 66.8032 86.4767 59.9849 93.2796C53.1667 100.083 49.3183 109.308 49.2806 118.939V124.96H27.0968C20.136 124.96 13.4594 127.721 8.53158 132.637C3.60379 137.553 0.827248 144.223 0.811035 151.184V179.388C0.811035 179.93 1.02605 180.449 1.40878 180.831C1.79151 181.214 2.3106 181.429 2.85186 181.429H17.505C18.0462 181.429 18.5653 181.214 18.948 180.831C19.3308 180.449 19.5458 179.93 19.5458 179.388C19.7287 173.088 22.3601 167.107 26.8812 162.715C31.4023 158.323 37.4571 155.867 43.7601 155.867C50.0632 155.867 56.118 158.323 60.6391 162.715C65.1602 167.107 67.7916 173.088 67.9745 179.388C67.9745 179.93 68.1895 180.449 68.5723 180.831C68.955 181.214 69.4741 181.429 70.0153 181.429H129.648C130.189 181.429 130.709 181.214 131.091 180.831C131.474 180.449 131.689 179.93 131.689 179.388C131.945 173.152 134.603 167.256 139.107 162.933C143.61 158.611 149.61 156.198 155.852 156.198C162.094 156.198 168.095 158.611 172.598 162.933C177.101 167.256 179.759 173.152 180.016 179.388C180.016 179.93 180.231 180.449 180.613 180.831C180.996 181.214 181.515 181.429 182.057 181.429H198.771C199.312 181.429 199.831 181.214 200.214 180.831C200.597 180.449 200.812 179.93 200.812 179.388V139.123C200.806 137.503 200.159 135.951 199.011 134.807C197.864 133.663 196.309 133.021 194.689 133.021ZM155.914 11.2041C155.914 9.58033 156.559 8.02306 157.707 6.87487C158.855 5.72669 160.412 5.08165 162.036 5.08165H174.281V25.4899H162.036C160.412 25.4899 158.855 24.8448 157.707 23.6966C156.559 22.5485 155.914 20.9912 155.914 19.3674V11.2041ZM53.3622 118.939C53.3721 112.379 55.3789 105.978 59.1155 100.586C62.8522 95.1942 68.1417 91.0677 74.2807 88.7554V122.776C74.2807 123.317 74.0656 123.836 73.6829 124.219C73.3002 124.602 72.7811 124.817 72.2398 124.817H53.3622V118.939ZM196.73 177.348H183.954C183.206 170.417 179.923 164.007 174.736 159.349C169.549 154.692 162.824 152.116 155.852 152.116C148.881 152.116 142.156 154.692 136.969 159.349C131.782 164.007 128.498 170.417 127.75 177.348H71.9745C71.433 170.233 68.2244 163.585 62.991 158.735C57.7575 153.884 50.8854 151.189 43.7499 151.189C36.6145 151.189 29.7424 153.884 24.5089 158.735C19.2755 163.585 16.0669 170.233 15.5254 177.348H4.89268V151.184C4.90889 145.306 7.2554 139.674 11.4177 135.523C15.5801 131.372 21.2185 129.041 27.0968 129.041H51.3214C51.5383 129.042 51.7532 129.001 51.9541 128.919H72.2398C73.8636 128.919 75.4209 128.274 76.5691 127.126C77.7173 125.977 78.3623 124.42 78.3623 122.796V87.5717C80.7565 87.0052 83.2082 86.7176 85.6684 86.7146H158.383C166.924 86.7307 175.112 90.131 181.151 96.1708C187.191 102.211 190.591 110.398 190.608 118.939V133C190.608 134.083 191.038 135.121 191.803 135.887C192.568 136.652 193.607 137.082 194.689 137.082C195.23 137.082 195.75 137.297 196.132 137.68C196.515 138.063 196.73 138.582 196.73 139.123V177.348Z" fill="#F4EFEB"/>
<path d="M194.689 133.021V118.939C194.673 109.315 190.843 100.09 184.037 93.2846C177.232 86.4794 168.007 82.6491 158.383 82.6329H102.852V72.4288C102.852 70.805 103.497 69.2477 104.645 68.0996C105.794 66.9514 107.351 66.3063 108.975 66.3063H168.158C170.865 66.3063 173.46 65.2313 175.374 63.3176C177.288 61.404 178.363 58.8085 178.363 56.1022V47.9389C178.363 45.2326 177.288 42.6372 175.374 40.7235C173.46 38.8099 170.865 37.7348 168.158 37.7348H47.75C46.1262 37.7348 44.5689 37.0898 43.4207 35.9416C42.2725 34.7934 41.6275 33.2361 41.6275 31.6123V23.4491C41.6275 21.8253 42.2725 20.268 43.4207 19.1198C44.5689 17.9716 46.1262 17.3266 47.75 17.3266H151.832V19.3674C151.832 22.0737 152.907 24.6692 154.821 26.5828C156.734 28.4964 159.33 29.5715 162.036 29.5715H176.322C176.863 29.5715 177.382 29.3565 177.765 28.9738C178.148 28.591 178.363 28.072 178.363 27.5307V25.4899H194.689C195.23 25.4899 195.75 25.2749 196.132 24.8921C196.515 24.5094 196.73 23.9903 196.73 23.4491C196.73 22.9078 196.515 22.3887 196.132 22.006C195.75 21.6232 195.23 21.4082 194.689 21.4082H178.363V9.16329H194.689C195.23 9.16329 195.75 8.94828 196.132 8.56555C196.515 8.18282 196.73 7.66373 196.73 7.12247C196.73 6.58121 196.515 6.06212 196.132 5.67939C195.75 5.29666 195.23 5.08165 194.689 5.08165H178.363V3.04082C178.363 2.49956 178.148 1.98047 177.765 1.59774C177.382 1.21502 176.863 1 176.322 1H162.036C159.33 1 156.734 2.07507 154.821 3.98872C152.907 5.90236 151.832 8.49781 151.832 11.2041V13.2449H47.75C45.0437 13.2449 42.4482 14.32 40.5346 16.2337C38.6209 18.1473 37.5458 20.7428 37.5458 23.4491V31.6123C37.5458 34.3186 38.6209 36.9141 40.5346 38.8277C42.4482 40.7414 45.0437 41.8165 47.75 41.8165H168.158C169.782 41.8165 171.34 42.4615 172.488 43.6097C173.636 44.7579 174.281 46.3151 174.281 47.9389V56.1022C174.281 57.726 173.636 59.2833 172.488 60.4314C171.34 61.5796 169.782 62.2247 168.158 62.2247H108.975C106.268 62.2247 103.673 63.2998 101.759 65.2134C99.8456 67.127 98.7705 69.7225 98.7705 72.4288V82.6329H85.6684C76.0369 82.649 66.8032 86.4767 59.9849 93.2796C53.1667 100.083 49.3183 109.308 49.2806 118.939V124.96H27.0968C20.136 124.96 13.4594 127.721 8.53158 132.637C3.60379 137.553 0.827248 144.223 0.811035 151.184V179.388C0.811035 179.93 1.02605 180.449 1.40878 180.831C1.79151 181.214 2.3106 181.429 2.85186 181.429H17.505C18.0462 181.429 18.5653 181.214 18.948 180.831C19.3308 180.449 19.5458 179.93 19.5458 179.388C19.7287 173.088 22.3601 167.107 26.8812 162.715C31.4023 158.323 37.4571 155.867 43.7601 155.867C50.0632 155.867 56.118 158.323 60.6391 162.715C65.1602 167.107 67.7916 173.088 67.9745 179.388C67.9745 179.93 68.1895 180.449 68.5723 180.831C68.955 181.214 69.4741 181.429 70.0153 181.429H129.648C130.189 181.429 130.709 181.214 131.091 180.831C131.474 180.449 131.689 179.93 131.689 179.388C131.945 173.152 134.603 167.256 139.107 162.933C143.61 158.611 149.61 156.198 155.852 156.198C162.094 156.198 168.095 158.611 172.598 162.933C177.101 167.256 179.759 173.152 180.016 179.388C180.016 179.93 180.231 180.449 180.613 180.831C180.996 181.214 181.515 181.429 182.057 181.429H198.771C199.312 181.429 199.831 181.214 200.214 180.831C200.597 180.449 200.812 179.93 200.812 179.388V139.123C200.806 137.503 200.159 135.951 199.011 134.807C197.864 133.663 196.309 133.021 194.689 133.021ZM155.914 11.2041C155.914 9.58033 156.559 8.02306 157.707 6.87487C158.855 5.72669 160.412 5.08165 162.036 5.08165H174.281V25.4899H162.036C160.412 25.4899 158.855 24.8448 157.707 23.6966C156.559 22.5485 155.914 20.9912 155.914 19.3674V11.2041ZM53.3622 118.939C53.3721 112.379 55.3789 105.978 59.1155 100.586C62.8522 95.1942 68.1417 91.0677 74.2807 88.7554V122.776C74.2807 123.317 74.0656 123.836 73.6829 124.219C73.3002 124.602 72.7811 124.817 72.2398 124.817H53.3622V118.939ZM196.73 177.348H183.954C183.206 170.417 179.923 164.007 174.736 159.349C169.549 154.692 162.824 152.116 155.852 152.116C148.881 152.116 142.156 154.692 136.969 159.349C131.782 164.007 128.498 170.417 127.75 177.348H71.9745C71.433 170.233 68.2244 163.585 62.991 158.735C57.7575 153.884 50.8854 151.189 43.7499 151.189C36.6145 151.189 29.7424 153.884 24.5089 158.735C19.2755 163.585 16.0669 170.233 15.5254 177.348H4.89268V151.184C4.90889 145.306 7.2554 139.674 11.4177 135.523C15.5801 131.372 21.2185 129.041 27.0968 129.041H51.3214C51.5383 129.042 51.7532 129.001 51.9541 128.919H72.2398C73.8636 128.919 75.4209 128.274 76.5691 127.126C77.7173 125.977 78.3623 124.42 78.3623 122.796V87.5717C80.7565 87.0052 83.2082 86.7176 85.6684 86.7146H158.383C166.924 86.7307 175.112 90.131 181.151 96.1708C187.191 102.211 190.591 110.398 190.608 118.939V133C190.608 134.083 191.038 135.121 191.803 135.887C192.568 136.652 193.607 137.082 194.689 137.082C195.23 137.082 195.75 137.297 196.132 137.68C196.515 138.063 196.73 138.582 196.73 139.123V177.348Z" stroke="#F4EFEB" mask="url(#path-4-outside-1_48_344)"/>
<path d="M43.6686 196.669L43.6661 196.669C40.4475 196.701 37.2921 195.776 34.6004 194.011C31.9087 192.246 29.8022 189.721 28.5483 186.757C27.2945 183.792 26.9498 180.522 27.5582 177.361C28.1665 174.2 29.7004 171.292 31.965 169.004C34.2297 166.717 37.123 165.154 40.2775 164.515C43.432 163.875 46.7055 164.187 49.6824 165.411C52.6592 166.635 55.205 168.717 56.9967 171.391C58.7884 174.065 59.745 177.211 59.7452 180.43L59.7452 180.432C59.7665 182.557 59.3663 184.665 58.5679 186.634C57.7695 188.603 56.5887 190.394 55.0937 191.904C53.5987 193.414 51.8193 194.613 49.8582 195.43C47.8972 196.248 45.7934 196.67 43.6686 196.669ZM43.6702 159.608C39.5454 159.575 35.5038 160.769 32.0581 163.037C28.6124 165.304 25.9179 168.545 24.3166 172.346C22.7153 176.148 22.2793 180.34 23.064 184.389C23.8486 188.439 25.8185 192.165 28.7238 195.093C31.629 198.022 35.3387 200.021 39.3821 200.838C43.4255 201.655 47.6205 201.252 51.4347 199.681C55.249 198.11 58.5107 195.442 60.806 192.014C63.1011 188.587 64.3266 184.555 64.3268 180.43C64.3433 174.931 62.1775 169.651 58.3048 165.747C54.4321 161.843 49.1689 159.636 43.6702 159.608ZM59.9952 180.43C60.0168 182.587 59.6104 184.728 58.7996 186.728C57.9888 188.727 56.7896 190.546 55.2713 192.08C53.7531 193.613 51.946 194.831 49.9545 195.661C47.9629 196.492 45.8265 196.92 43.6686 196.919L59.9952 180.43Z" fill="#F4EFEB" stroke="#F4EFEB" stroke-width="0.5"/>
<path d="M155.913 196.669L155.911 196.669C152.692 196.701 149.537 195.776 146.845 194.011C144.154 192.246 142.047 189.721 140.793 186.757C139.539 183.792 139.195 180.522 139.803 177.361C140.411 174.2 141.945 171.292 144.21 169.004C146.475 166.717 149.368 165.154 152.522 164.515C155.677 163.875 158.95 164.187 161.927 165.411C164.904 166.635 167.45 168.717 169.242 171.391C171.033 174.065 171.99 177.211 171.99 180.43L171.99 180.432C172.011 182.557 171.611 184.665 170.813 186.634C170.014 188.603 168.834 190.394 167.339 191.904C165.844 193.414 164.064 194.613 162.103 195.43C160.142 196.248 158.038 196.67 155.913 196.669ZM155.915 159.608C151.79 159.575 147.749 160.769 144.303 163.037C140.857 165.304 138.163 168.545 136.561 172.346C134.96 176.148 134.524 180.34 135.309 184.389C136.093 188.439 138.063 192.165 140.969 195.093C143.874 198.022 147.584 200.021 151.627 200.838C155.67 201.655 159.865 201.252 163.68 199.681C167.494 198.11 170.756 195.442 173.051 192.014C175.346 188.587 176.571 184.555 176.572 180.43C176.588 174.931 174.422 169.651 170.55 165.747C166.677 161.843 161.414 159.636 155.915 159.608ZM172.24 180.43C172.262 182.587 171.855 184.728 171.044 186.728C170.234 188.727 169.034 190.546 167.516 192.08C165.998 193.613 164.191 194.831 162.199 195.661C160.208 196.492 158.071 196.92 155.913 196.919L172.24 180.43Z" fill="#F4EFEB" stroke="#F4EFEB" stroke-width="0.5"/>
</svg>
