<svg width="184" height="200" viewBox="0 0 184 200" fill="none" xmlns="http://www.w3.org/2000/svg">
<path d="M106.373 174.183C108.194 174.183 109.667 172.71 109.667 170.889V155.75C109.667 153.929 108.194 152.456 106.373 152.456H75.3045C73.4833 152.456 72.0104 153.929 72.0104 155.75V170.889C72.0104 172.71 73.4833 174.183 75.3045 174.183H106.373ZM78.5986 159.045H103.079V167.595H78.5986V159.045Z" fill="#F4EFEB"/>
<path d="M154.466 174.183C156.287 174.183 157.76 172.71 157.76 170.889V155.75C157.76 153.929 156.287 152.456 154.466 152.456H123.398C121.577 152.456 120.104 153.929 120.104 155.75V170.889C120.104 172.71 121.577 174.183 123.398 174.183H154.466ZM126.697 159.045H151.177V167.595H126.697V159.045Z" fill="#F4EFEB"/>
<path d="M49.5771 45.1579C53.1677 47.605 57.4218 48.932 61.8171 48.932C63.643 48.932 65.4313 48.7061 67.1724 48.2638C72.2736 62.4002 85.723 71.9955 101.022 71.9955C120.871 71.9955 137.017 55.8497 137.017 36.0002C137.017 16.1508 120.876 0.000244141 101.027 0.000244141C91.4548 0.000244141 82.396 3.76495 75.6807 10.4379C71.8077 7.22848 66.9183 5.44025 61.8218 5.44025C54.7489 5.44025 48.2171 8.8473 44.1607 14.4991C42.6266 14.0614 41.036 13.8402 39.4077 13.8402C29.8642 13.8402 22.0995 21.605 22.0995 31.1485C22.0995 40.692 29.8642 48.4567 39.4077 48.4567C43.1207 48.4567 46.6454 47.3038 49.5771 45.1579ZM28.6877 31.1485C28.6877 25.2379 33.4971 20.4285 39.4077 20.4285C41.0454 20.4285 42.6218 20.7908 44.0854 21.5014C45.6807 22.2779 47.6007 21.652 48.4336 20.085C51.0783 15.1155 56.2077 12.0332 61.8218 12.0332C66.2407 12.0332 70.4289 13.9626 73.3183 17.3226C73.9442 18.052 74.8571 18.4708 75.8171 18.4708C75.8266 18.4708 75.836 18.4708 75.8501 18.4708C76.8195 18.4614 77.7371 18.0238 78.3583 17.2755C83.9724 10.4897 92.236 6.59318 101.031 6.59318C117.248 6.59318 130.438 19.7838 130.438 36.0002C130.438 52.2167 117.248 65.4073 101.031 65.4073C90.6689 65.4073 81.3513 60.0191 76.0901 51.6002C76.076 51.572 76.0618 51.5438 76.043 51.5155C75.1442 50.0708 74.3771 48.5602 73.7465 46.9932C73.7418 46.9838 73.7371 46.9744 73.7324 46.965C73.6477 46.7579 73.5724 46.5461 73.4924 46.3391C73.4313 46.1838 73.3748 46.0238 73.3183 45.8685C73.2571 45.6944 73.196 45.5202 73.1395 45.3461C73.0689 45.1391 73.003 44.932 72.9418 44.7249C72.8948 44.5791 72.8524 44.4285 72.8054 44.2779C72.7301 44.0191 72.6595 43.7555 72.5889 43.492C71.9536 41.0638 71.6195 38.5508 71.6195 36.005C71.6195 33.492 71.9348 30.9932 72.5607 28.5838C73.0171 26.8238 71.963 25.0261 70.1983 24.565C68.4383 24.1085 66.6407 25.1626 66.1795 26.9273C65.4124 29.8779 65.0266 32.932 65.0266 36.005C65.0266 37.9861 65.1913 39.9532 65.5113 41.892C64.3113 42.1932 63.0736 42.3532 61.8124 42.3532C58.4054 42.3532 55.1207 41.2097 52.4618 39.1155C52.283 38.9744 52.1042 38.8285 51.9301 38.6779C51.8501 38.6073 51.7701 38.5414 51.6901 38.4708C49.7842 36.7626 48.3442 34.612 47.4971 32.1932C46.8995 30.4755 45.0171 29.5673 43.2995 30.1697C41.5818 30.7673 40.6736 32.6497 41.276 34.3673C42.0571 36.6026 43.2007 38.6685 44.636 40.5179C43.0548 41.4073 41.2666 41.8826 39.3983 41.8826C33.4971 41.8685 28.6877 37.0591 28.6877 31.1485Z" fill="#F4EFEB"/>
<path d="M5.53001 155.374L0.833539 196.329C0.725304 197.261 1.02177 198.198 1.64765 198.899C2.27354 199.6 3.16766 200 4.10413 200H56.3818H179.775C181.596 200 183.069 198.527 183.069 196.706V110.329C183.069 108.508 181.596 107.035 179.775 107.035H159.991C158.17 107.035 156.697 108.508 156.697 110.329V123.609L145.761 108.405C145.139 107.544 144.146 107.035 143.088 107.035H123.403C121.582 107.035 120.109 108.508 120.109 110.329V123.609L109.172 108.405C108.551 107.544 107.558 107.035 106.499 107.035H86.8147C84.9935 107.035 83.5206 108.508 83.5206 110.329V123.605L72.5888 108.405C71.9677 107.544 70.9747 107.035 69.9159 107.035H60.5606C58.7394 107.035 57.2665 108.508 57.2665 110.329C57.2665 112.151 58.7394 113.624 60.5606 113.624H68.2312L84.1465 135.751C84.9794 136.913 86.4712 137.402 87.8312 136.965C89.1912 136.527 90.1135 135.261 90.1135 133.831V113.624H104.815L120.735 135.755C121.568 136.918 123.059 137.407 124.419 136.965C125.779 136.527 126.702 135.261 126.702 133.831V113.624H141.403L157.323 135.755C158.156 136.918 159.648 137.407 161.008 136.965C162.368 136.527 163.29 135.261 163.29 133.831V113.624H176.485V193.412H59.3182L49.7465 109.953C49.7465 109.944 49.7418 109.939 49.7418 109.929L45.8877 76.3529C45.8877 76.3341 45.883 76.3106 45.9112 76.2824C45.9394 76.2541 45.963 76.2541 45.9771 76.2541C49.6618 76.2541 52.6594 73.2565 52.6594 69.5765V56.4047C52.6594 54.5835 51.1865 53.1106 49.3653 53.1106H11.1206C9.29942 53.1106 7.82648 54.5835 7.82648 56.4047V69.5765C7.82648 73.2612 10.8241 76.2541 14.5088 76.2541C14.5277 76.2541 14.5512 76.2541 14.5794 76.2824C14.6077 76.3106 14.603 76.3341 14.603 76.3529L8.59354 128.678C8.38648 130.485 9.68531 132.118 11.4924 132.325C13.2994 132.532 14.9324 131.233 15.1394 129.426L21.1441 77.1012C21.3606 75.2094 20.7582 73.313 19.4924 71.8918C18.2265 70.4706 16.41 69.6565 14.5088 69.6565C14.4571 69.6565 14.4194 69.6141 14.4194 69.5671V59.6894H46.0759V69.5671C46.0759 69.6188 46.0335 69.6565 45.9818 69.6565C44.0806 69.6565 42.2641 70.4706 40.9982 71.8918C39.7324 73.313 39.13 75.2094 39.3465 77.1012L52.6924 193.407H7.79824L12.0759 156.118C12.283 154.311 10.9841 152.678 9.17707 152.471C7.37001 152.264 5.73707 153.567 5.53001 155.374Z" fill="#F4EFEB"/>
<path d="M7.59619 144.231C7.71383 144.41 7.85501 144.58 8.0056 144.73C8.15619 144.886 8.3256 145.022 8.50442 145.14C8.68325 145.262 8.87619 145.361 9.07384 145.446C9.27619 145.526 9.48325 145.591 9.69031 145.634C9.90207 145.676 10.1232 145.695 10.335 145.695C11.2009 145.695 12.0527 145.342 12.6644 144.73C12.815 144.58 12.9562 144.41 13.0738 144.231C13.1915 144.053 13.295 143.86 13.375 143.662C13.4597 143.464 13.5209 143.257 13.5632 143.046C13.6056 142.834 13.6291 142.617 13.6291 142.401C13.6291 142.189 13.6056 141.973 13.5632 141.756C13.5209 141.549 13.4597 141.342 13.375 141.144C13.295 140.942 13.1915 140.754 13.0738 140.575C12.9562 140.391 12.815 140.227 12.6644 140.071C12.0527 139.46 11.2009 139.107 10.335 139.107C9.46913 139.107 8.61737 139.46 8.0056 140.071C7.85501 140.227 7.71383 140.391 7.59619 140.575C7.47854 140.754 7.37501 140.942 7.29501 141.144C7.21031 141.342 7.14913 141.549 7.10678 141.756C7.06443 141.973 7.04089 142.189 7.04089 142.401C7.04089 142.617 7.06443 142.834 7.10678 143.046C7.14913 143.257 7.21031 143.464 7.29501 143.662C7.37501 143.86 7.47854 144.053 7.59619 144.231Z" fill="#F4EFEB"/>
</svg>
